<svg id="Layer_1" data-name="Layer 1" xmlns="http://www.w3.org/2000/svg" xmlns:xlink="http://www.w3.org/1999/xlink" viewBox="0 0 1920 1920"><defs><style>.cls-1{fill:#fff;opacity:0.52;isolation:isolate;}.cls-2{fill:url(#linear-gradient);}</style><linearGradient id="linear-gradient" x1="-115.84" y1="1520.58" x2="955.18" y2="1520.58" gradientTransform="matrix(1, 0, 0, -1, 539, 2164.5)" gradientUnits="userSpaceOnUse"><stop offset="0" stop-color="#2b327a"/><stop offset="0.22" stop-color="#2a437b"/><stop offset="0.66" stop-color="#26707e"/><stop offset="1" stop-color="#239780"/></linearGradient></defs><path class="cls-1" d="M959.54,61C640.39,61,382,321,382,641.28c0,320.79,258.39,580.82,577.54,580.82s577.54-260,577.54-580.82C1537.08,321,1278.69,61,959.54,61Zm303.82,713.85A290.64,290.64,0,0,1,1233.25,829a160.54,160.54,0,0,1-11,15.88c-25.72,34.49-58,63.5-96.89,86.49l-2.74,1.65c-2.19,1.09-7.66,3.28-15.33,6.57-8.75,4.37-17.51,8.75-26.27,12-40,16.42-82.66,24.09-127.55,24.09h-3.29c-3.28,0-9.85-1.65-20.8-2.74s-24.09-4.38-40.51-8.76c-2.74-.55-6-2.19-8.76-2.74,13.69-17,26.28-36.13,32.85-52a343.29,343.29,0,0,0,42.15,4.38c6,0,12,0,18.61-.55,6-.55,12-.55,17-.55,23-2.74,45.44-8.76,66.24-16.42v-.55a252,252,0,0,0,35-16.42,50.61,50.61,0,0,0,7.11-4.38c3.84-2.74,8.21-4.93,11.5-7.67,3.28-2.19,6-4.38,9.31-6a265.22,265.22,0,0,0,39.41-35l1.1-1.1c1.64-2.19,3.28-3.83,4.92-6A219.46,219.46,0,0,0,1190,784.7,292.71,292.71,0,0,0,1224.49,696a253.15,253.15,0,0,0,1.65-95.25c-4.93-32.3-15.88-63-32.3-92.52-19.71-32.3-43.8-59.67-72.26-81a258.53,258.53,0,0,0-93.07-45.44c-30.1-7.66-61.31-10.94-93.61-8.21-2.19.55-4.92.55-7.11,1.1a260.86,260.86,0,0,0-92.52,29,278.29,278.29,0,0,0-75.54,58c-20.81,23-38.87,49.81-51.46,79.38a7.74,7.74,0,0,0-1.1,3.28c0,.55-.54,1.1-.54,1.64a302.08,302.08,0,0,0-13.14,44.89c-6,31.21-7.67,64.05-2.74,96.9s15.33,64.59,32.85,93.61l.54,1.09c9.86,16.43,5.48,31.21-10.4,40.51-7.66,4.93-15.33,5.48-23.54,3.29S676,818.64,671,811c-22.44-39.42-36.13-80.47-41.6-124.27a318.87,318.87,0,0,1-1.64-64.59A322.47,322.47,0,0,1,655.71,511a358.21,358.21,0,0,1,35.59-61.31c1.09-1.65,2.19-2.74,3.28-4.38,25.73-35.59,58.58-64.05,98-86.5,70.62-40.51,145.07-53.65,222.26-40,52,8.21,99.08,28.47,141.24,59.67a23.64,23.64,0,0,0,3.83,2.74,309.38,309.38,0,0,1,67.33,69,335,335,0,0,1,40.51,72.26,313.22,313.22,0,0,1,23,127C1289.09,693.28,1280.33,735.43,1263.36,774.85Zm-360.75-133A56.39,56.39,0,1,1,959,698.21C927.79,698.21,902.61,672.48,902.61,641.82Z"/><path class="cls-2" d="M1194.39,1125.75c21.35-10.4,28.46-14.23,31.2-15.87a594.66,594.66,0,0,0,57.48-39.42c95.8-72.81,160.4-168.06,191.6-284.12,19.16-69.52,24.09-139.59,15.33-208-9.31-69-31.75-135.76-66.79-199.26-35-63-81-116.06-136.31-157.66a578,578,0,0,0-188.31-93.61c-69-19.16-139-24.09-208-14.78a534.23,534.23,0,0,0-197.62,67.88c-63,36.67-116.6,83.75-159.3,139.59-42.15,56.93-72.81,119.34-91.42,185.58a538.17,538.17,0,0,0-15.33,205.29A529.9,529.9,0,0,0,493.13,912.8c15.33,25.73,35,47.08,58.57,63,24.09,16.42,50.37,27.37,78.29,33.94a257.69,257.69,0,0,0,87,3.28,216.52,216.52,0,0,0,82.66-29l14.78-8.76c3.28-2.19,6-3.83,8.21-6l1.64-1.1q37.78-30.37,59.13-70.62l11.49-21.89L919,880c55.29,9.3,106.75,0,157.66-27.92a78.07,78.07,0,0,0,12-8.22q8.22-5.75,14.78-9.85,34.48-27.09,55.84-62.41A245.71,245.71,0,0,0,1190,693.28a238.81,238.81,0,0,0,2.19-83.76A249,249,0,0,0,1164.28,528a245.85,245.85,0,0,0-63-71.17,224.25,224.25,0,0,0-81-40c-29-7.66-59.67-9.85-91.42-6.57-30.65,3.28-60.76,13.69-89.23,30.66l-14.78,8.76a72.46,72.46,0,0,0-10.4,7.66l-1.1.55a230.59,230.59,0,0,0-56.93,63A235,235,0,0,0,725.79,598a244.41,244.41,0,0,0-2.19,84.85c3.83,28.47,13.68,55.29,28.46,80.47l2.19,4.38c15.33,33.4,6,65.69-25.18,83.76-15.88,9.31-33.94,12-50.91,6.57a66.22,66.22,0,0,1-38.32-30.66c-24.64-43.79-40-89.78-45.44-137.4a362.15,362.15,0,0,1,11-139.6,385.83,385.83,0,0,1,61.86-124.81,344.21,344.21,0,0,1,108.94-95.25c87-49.27,180.1-61.32,275.9-36.13a368.57,368.57,0,0,1,128.1,63A341.35,341.35,0,0,1,1273.76,465a381.18,381.18,0,0,1,46,135.22,349.62,349.62,0,0,1-11.5,142.33c-12.59,46-35.58,87.59-61.86,127-59.67,88.14-84.85,139.05-291.23,309.85,0,0,58.57-2.74,83.76-7.12,35-6,66.23-13.14,92.51-21.35C1157.71,1141.08,1179.06,1133.42,1194.39,1125.75ZM872,628.68c3.83-20.8,14.78-38.32,31.2-51.45l4.38-2.74,6.57-3.83c19.71-12,42.7-14.78,66.24-9.31,23.54,6,42.15,19.71,53.65,39.42l1.09,2.19c9.86,19.7,12.59,40.51,8.22,60.21a92.28,92.28,0,0,1-27.92,47.63,64.08,64.08,0,0,1-13.14,11l-2.19,1.09a88.48,88.48,0,0,1-40.51,9.86,91.21,91.21,0,0,1-24.09-3.29c-23.54-6-42.15-20.25-53.1-41.6A85.64,85.64,0,0,1,872,628.68Z"/></svg>