<svg id="Layer_1" data-name="Layer 1" xmlns="http://www.w3.org/2000/svg" viewBox="0 0 1200 900"><defs><style>.cls-1{fill:#80bb42;}.cls-2{fill:#66192d;}.cls-3{fill:#263147;}.cls-4{fill:#ffc700;}.cls-5{fill:#f18c7e;}.cls-6{fill:#fff;}.cls-7{fill:#fdad9b;}.cls-8{fill:#282828;}.cls-9{fill:#fdbe0a;}</style></defs><path class="cls-1" d="M393.24,232.29s-9.11-25.19,1.51-42.49,48.84-41.87,38.06-63.1-38.6-20.45-48.2-8.24-2,23.07-9.23,25.47-50.15,10-50.14-15.22,23.22-63.22,59.91-69.08,85.74-11.62,102.5,35,1,67.79-23.47,83.5-8.76,42.29-17.72,47.37S395.43,240.52,393.24,232.29Z"/><path class="cls-1" d="M390.09,281.74c.3-20.21,10.32-34.07,28.12-36.35s33.8,5,41.21,27.33c5.64,17-15.18,34.87-33,37.15S389.83,299.69,390.09,281.74Z"/><path class="cls-2" d="M479.76,97.66c-7.5-20.86-21.88-33.08-44-37.33-18.87-3.65-40.25-.79-58.81,2.17a64.34,64.34,0,0,0-6.49,1.39h0l-.08,0c-33.32,9.13-53.52,44.47-53.52,67.9,0,5.68,2.16,10.12,6.44,13.21,6.6,4.77,17,5.43,24.57,5.14a84,84,0,0,0,19.45-2.9,4.71,4.71,0,0,0,2.7-2.05h0c1-1.59,1-3.83,1.16-6.4.2-4.76.44-10.67,5.49-17.08,2.9-3.69,7.49-6.35,12.81-7.63h0a32.29,32.29,0,0,1,10.63-.71,30.07,30.07,0,0,1,24.33,16.53c7.37,14.52-8.5,30.71-22.51,45-6.29,6.42-12.23,12.49-15.53,17.86-10.49,17.07-1.76,42.06-1.54,42.69a3.68,3.68,0,0,0,2.36,2.31,19.78,19.78,0,0,0,7.2,1c13.71,0,37.84-6.49,44-10a4.1,4.1,0,0,0,.41-.26c3.08-2.13,3-7,2.8-13.12-.26-10.24-.61-24.28,14.53-34,14.52-9.32,22.94-18.65,27.29-30.27C488.82,137,487.6,119.45,479.76,97.66ZM483,151c-4.32,11.52-12.68,20.78-27.11,30-15.37,9.86-15,24.05-14.74,34.41.15,6.21.28,11.11-3,13-.58.32-1.27.66-2.07,1l0,0c-8.75,3.86-29.53,8.88-41.65,8.87a19.41,19.41,0,0,1-7-1,3.18,3.18,0,0,1-2.07-2h0c-.1-.26-9-25.28,1.48-42.28,3.27-5.33,9.2-11.37,15.47-17.77,14.12-14.41,30.13-30.74,22.6-45.57a30.57,30.57,0,0,0-24.72-16.79c-1.1-.11-2.19-.16-3.28-.16a31.77,31.77,0,0,0-6.06.57h0c-6,1.15-11.3,4-14.52,8.09-5.14,6.55-5.4,12.8-5.59,17.37-.11,2.81-.2,5.08-1.35,6.56a4.36,4.36,0,0,1-2.17,1.46,84.19,84.19,0,0,1-19.31,2.88c-7.5.27-17.79-.37-24.27-5.05-4.15-3-6.25-7.31-6.25-12.82,0-22.48,18.74-56,49.87-66.42A62,62,0,0,1,377.07,63c41.05-6.55,86.19-9.8,102.23,34.84C487.1,119.51,488.32,136.9,483,151Z"/><path class="cls-2" d="M451.53,275.76c-6.72-20.28-21.45-30-41.46-27.49-1,.12-2,.28-2.9.49h0a29.65,29.65,0,0,0-17.88,11c-4.78,6.31-7.39,15-7.54,25.05a26,26,0,0,0,9.14,19.93,35.1,35.1,0,0,0,27.49,8.44,41.87,41.87,0,0,0,14.07-4.66h0l.05,0a43.12,43.12,0,0,0,16.07-14.42C452.44,288,453.47,281.6,451.53,275.76Zm-3.38,18.09c-4,6.34-10.66,11.88-18,15.34h0a40,40,0,0,1-11.81,3.53,34.6,34.6,0,0,1-27.11-8.31,25.64,25.64,0,0,1-9-19.56c.15-10,2.73-18.54,7.46-24.76a28.81,28.81,0,0,1,15.95-10.48,35.62,35.62,0,0,1,4.51-.87,46.24,46.24,0,0,1,6-.39c16.7,0,29,9.61,34.93,27.55C453,281.62,452,287.82,448.15,293.85Z"/><path class="cls-3" d="M686.83,147.16s-2.5-21.4,9-33,46-23.78,41.43-42.4S710.81,48.65,701,56.44s-5.8,17.7-11.92,18.24S648,73.24,652.66,53.53s29.84-45.23,59.64-43,69.29,6.69,73.82,46.29-11.7,53.27-33.76,61.06-14.66,31.5-22.61,33.82S687,154,686.83,147.16Z"/><path class="cls-3" d="M675.25,185.31c4-15.77,14.36-24.78,28.72-23.28s25.55,10.13,27.23,29c1.28,14.38-18.31,24.51-32.67,23S671.74,199.31,675.25,185.31Z"/><path class="cls-2" d="M779.39,57.68c-2-17.71-11-29.93-27.55-37.33-14.1-6.32-31.38-8-46.45-9.13a49.4,49.4,0,0,0-5.43-.09h0c-27.76,1-50.08,24.95-54.4,43.3A12.35,12.35,0,0,0,648.16,66c7.9,9.11,28.83,10.33,34.05,9.86a3.76,3.76,0,0,0,2.49-1.11c1-1.07,1.53-2.8,2.09-4.81,1-3.68,2.31-8.27,7.44-12.36a18.51,18.51,0,0,1,11.46-3.61h0a25.81,25.81,0,0,1,8.44,1.41,24.18,24.18,0,0,1,16,17.42c3.09,12.72-12.32,22.48-25.92,31.09-6.11,3.87-11.88,7.53-15.46,11.12-6,6-8.13,14.73-8.87,21a56.69,56.69,0,0,0-.19,12.18,3,3,0,0,0,1.42,2.24c3.84,2.8,14.8,3.82,24.71,3.82,7.38,0,14.19-.57,17-1.4l.33-.12h0c2.82-1.09,3.62-4.93,4.63-9.75,1.68-8.07,4-19.13,17.63-24,13.09-4.62,21.41-10.38,27-18.67C779.24,90.12,781.51,76.19,779.39,57.68Zm-7.27,42.37c-5.5,8.23-13.75,13.94-26.76,18.54-13.85,4.88-16.18,16.06-17.88,24.22-1,4.89-1.83,8.75-4.71,9.6-.52.15-1.13.28-1.82.41h0c-9.38,1.75-33.71,1.49-39.57-2.78a2.54,2.54,0,0,1-1.26-1.94v0a57.14,57.14,0,0,1,.18-12.1c.75-6.18,2.87-14.78,8.77-20.73,3.54-3.57,9.3-7.21,15.39-11.07,13.71-8.68,29.25-18.52,26.09-31.51A24.58,24.58,0,0,0,714.27,55a26.09,26.09,0,0,0-7.38-1.41h0c-.36,0-.72,0-1.07,0A19,19,0,0,0,694,57.23c-5.23,4.17-6.59,9-7.58,12.57-.6,2.18-1.1,3.94-2.27,4.89a3.53,3.53,0,0,1-2,.74c-5.18.46-25.93-.73-33.73-9.73a12,12,0,0,1-2.53-11.19c4.14-17.59,25-40.38,51.23-42.81h.05a49.29,49.29,0,0,1,8.16-.09C738.71,14,774.65,19.81,779,57.73,781.11,76.14,778.86,90,772.12,100.05Z"/><path class="cls-2" d="M724.47,192c-1.53-17.13-11.26-27.49-27.41-29.18-.8-.08-1.59-.13-2.37-.14h0c-12.89-.29-22.71,8.37-26.53,23.58a21,21,0,0,0,3.48,17.28,28.25,28.25,0,0,0,20,11.68,29.24,29.24,0,0,0,3,.15,34.75,34.75,0,0,0,8.91-1.21h0a34.78,34.78,0,0,0,15.26-8.33C722.94,201.66,724.91,196.88,724.47,192Zm-6,13.54a35,35,0,0,1-17,8.68h0a32.19,32.19,0,0,1-9.87.6,27.85,27.85,0,0,1-19.69-11.51,20.64,20.64,0,0,1-3.42-17c2-7.78,5.55-14,10.39-18A23.23,23.23,0,0,1,693.29,163h0l.73,0a27.49,27.49,0,0,1,3,.16c15.94,1.66,25.55,11.9,27.06,28.81C724.5,196.79,722.57,201.47,718.49,205.49Z"/><path class="cls-4" d="M834.24,326.77s-.92-21.53,11.41-32.24,47.58-20.34,44.43-39.24-24.68-25-35-17.95-7.09,17.22-13.23,17.31S801,250.2,807,230.88s33.08-42.91,62.65-38.56,68.6,11.77,70.21,51.59-15.58,52.27-38.15,58.42-16.94,30.34-25,32.07S833.93,333.61,834.24,326.77Z"/><path class="cls-4" d="M819.89,364c5.1-15.44,16.14-23.66,30.35-21.11s24.73,12,25,30.92c.23,14.44-20.06,23.1-34.27,20.54S815.35,377.67,819.89,364Z"/><path class="cls-2" d="M933.12,244.33c-.72-17.82-8.81-30.66-24.73-39.25-13.6-7.35-30.7-10.32-45.65-12.52a51.86,51.86,0,0,0-5.36-.5c-27.79-1.07-51.84,21.2-57.5,39.19a12.34,12.34,0,0,0,1.76,11.69c7.2,9.67,28,12.43,33.23,12.34a3.74,3.74,0,0,0,2.57-.93c1.12-1,1.73-2.68,2.44-4.63,1.3-3.6,2.91-8.08,8.33-11.79a18.55,18.55,0,0,1,11.69-2.76h0a25.55,25.55,0,0,1,8.3,2,24.18,24.18,0,0,1,14.68,18.55c2.16,12.92-13.93,21.52-28.13,29.1-6.37,3.41-12.4,6.63-16.23,10-6.41,5.57-9.19,14.08-10.39,20.25a59,59,0,0,0-1.09,12.14,3,3,0,0,0,1.25,2.34c4.86,4.11,22.65,6,33.75,6a42.33,42.33,0,0,0,7.71-.51c.13,0,.25-.06.37-.09h0c2.88-.9,4-4.67,5.31-9.39,2.27-7.92,5.38-18.78,19.35-22.59,13.39-3.64,22.1-8.77,28.25-16.64C930.59,276.68,933.87,263,933.12,244.33Zm-10.36,41.73c-6.09,7.79-14.74,12.89-28,16.51-14.17,3.86-17.32,14.84-19.62,22.85-1.37,4.8-2.46,8.59-5.4,9.22-.51.11-1.11.2-1.79.28h-.08c-9.49,1-33.72-1-39.25-5.7a2.58,2.58,0,0,1-1.12-2v0a58.22,58.22,0,0,1,1.08-12.06c1.2-6.1,3.94-14.52,10.27-20,3.8-3.3,9.8-6.51,16.16-9.91,14.31-7.65,30.54-16.32,28.34-29.51a24.58,24.58,0,0,0-14.93-18.85,26.33,26.33,0,0,0-7.24-2h0a24.14,24.14,0,0,0-2.8-.16,18.25,18.25,0,0,0-10.3,2.88c-5.53,3.78-7.23,8.52-8.48,12-.77,2.11-1.39,3.83-2.61,4.69h0a3.52,3.52,0,0,1-2,.59c-5.22.1-25.8-2.63-32.92-12.17a12,12,0,0,1-1.7-11.34c5.43-17.25,27.89-38.46,54.28-38.94h0a48.63,48.63,0,0,1,8.12.52c33.08,4.87,68.51,13.27,70.05,51.4C933.48,262.87,930.22,276.52,922.76,286.06Z"/><path class="cls-2" d="M843.29,343.09c-.8-.14-1.57-.25-2.35-.33h0c-12.84-1.24-23.28,6.67-28.21,21.57a21,21,0,0,0,2.2,17.5A28.24,28.24,0,0,0,834,394.94a30.7,30.7,0,0,0,5.29.45,36.13,36.13,0,0,0,6.68-.63h0a34.86,34.86,0,0,0,15.8-7.18c4.46-3.79,6.79-8.42,6.71-13.37C868.21,357,859.27,346,843.29,343.09Zm18.23,44.18a35,35,0,0,1-17.56,7.4h0a32,32,0,0,1-9.88-.13,27.79,27.79,0,0,1-18.79-12.93,21.55,21.55,0,0,1-3.16-11,19.63,19.63,0,0,1,1-6.14c2.52-7.62,6.56-13.57,11.69-17.2A23.07,23.07,0,0,1,838.3,343c.42,0,.83,0,1.25,0h0a31,31,0,0,1,3.66.41c15.77,2.84,24.61,13.75,24.87,30.73C868.16,379,865.89,383.55,861.52,387.27Z"/><path class="cls-1" d="M919.79,121.43s-.55-13,6.9-19.49,28.78-12.3,26.87-23.73S938.63,63.09,932.4,67.35s-4.29,10.42-8,10.47-24.73-2.69-21-14.37,20-25.95,37.88-23.32,41.49,7.12,42.46,31.2-9.43,31.61-23.08,35.32-10.24,18.35-15.13,19.4S919.61,125.57,919.79,121.43Z"/><path class="cls-1" d="M911.11,143.92c3.09-9.33,9.76-14.3,18.36-12.76s14.95,7.25,15.13,18.69c.14,8.73-12.13,14-20.72,12.43S908.37,152.21,911.11,143.92Z"/><path class="cls-2" d="M979.59,71.59c-.44-10.78-5.33-18.55-15-23.74-8.22-4.45-18.56-6.24-27.6-7.58-1.09-.16-2.17-.25-3.25-.3h-.06l-1.09,0c-16.31,0-30.26,13.1-33.62,23.72a7.5,7.5,0,0,0,1.07,7.07c4.36,5.84,16.94,7.51,20.1,7.46a2.25,2.25,0,0,0,1.55-.56,6.71,6.71,0,0,0,1.47-2.8,12.89,12.89,0,0,1,5-7.13,11.18,11.18,0,0,1,7-1.66h0a15.36,15.36,0,0,1,5,1.22,14.61,14.61,0,0,1,8.88,11.22c1.31,7.81-8.42,13-17,17.6-3.86,2.06-7.5,4-9.81,6-3.88,3.36-5.56,8.52-6.29,12.24a36.14,36.14,0,0,0-.66,7.35,1.81,1.81,0,0,0,.76,1.41c2.94,2.49,13.7,3.63,20.41,3.63a24.89,24.89,0,0,0,4.66-.32,1.05,1.05,0,0,0,.21-.06c1.75-.52,2.41-2.81,3.24-5.68,1.37-4.79,3.25-11.35,11.7-13.65,8.09-2.21,13.36-5.31,17.08-10.07C978.06,91.14,980,82.84,979.59,71.59Zm-6.27,25.23c-3.68,4.71-8.91,7.79-17,10-8.57,2.33-10.48,9-11.86,13.82-.83,2.9-1.49,5.19-3.27,5.57a9.23,9.23,0,0,1-1.12.17h0c-5.74.64-20.38-.6-23.72-3.43a1.58,1.58,0,0,1-.67-1.23h0a35.11,35.11,0,0,1,.65-7.3c.72-3.68,2.39-8.78,6.21-12.11,2.29-2,5.93-3.93,9.77-6,8.66-4.63,18.46-9.87,17.14-17.85a14.88,14.88,0,0,0-9-11.4,16,16,0,0,0-4.4-1.17h0a13.48,13.48,0,0,0-1.67-.1,11,11,0,0,0-6.22,1.74A13.23,13.23,0,0,0,923,74.76a5.77,5.77,0,0,1-1.58,2.84,2,2,0,0,1-1.23.36H920c-3.35,0-15.52-1.67-19.76-7.36a7.24,7.24,0,0,1-1-6.86C902.52,53.31,916.08,40.5,932,40.2h0a28.34,28.34,0,0,1,4.93.31c20,3,41.43,8,42.36,31.08C979.81,82.79,977.84,91,973.32,96.82Z"/><path class="cls-2" d="M925.27,131.31c-.48-.09-1-.16-1.42-.2h0c-7.75-.74-14.07,4-17,13a12.7,12.7,0,0,0,1.33,10.58,17.06,17.06,0,0,0,11.53,7.92,17.72,17.72,0,0,0,3.2.28,21.94,21.94,0,0,0,4-.38h0a21.09,21.09,0,0,0,9.57-4.35,10.38,10.38,0,0,0,4.06-8.09C940.34,139.72,934.93,133,925.27,131.31Zm11,26.71a21.21,21.21,0,0,1-10.6,4.48h0a19.66,19.66,0,0,1-6-.08,16.86,16.86,0,0,1-11.37-7.81,12.45,12.45,0,0,1-1.3-10.39c1.51-4.61,4-8.21,7.06-10.4a14,14,0,0,1,8.18-2.56l.77,0a18.52,18.52,0,0,1,2.2.25c9.54,1.72,14.88,8.32,15,18.58A10.12,10.12,0,0,1,936.29,158Z"/><path class="cls-4" d="M378.87,505s-10.42-15-6.45-28.26,24.84-36.15,14-48.25-29-6.71-33.2,3,2.73,15.55-1.62,18.4-31.3,15.36-35.71-1.23,4.22-45.73,27.37-56,54.46-22.69,73.67,5.09,12.55,44.49-.82,59.13,1.64,29.41-3.37,34.32S381.76,510,378.87,505Z"/><path class="cls-4" d="M385.47,538.14c-3.35-13.37.82-24.27,12.16-28.89s23.14-2.63,31.94,10.79c6.71,10.23-3.89,25.63-15.22,30.25S388.44,550,385.47,538.14Z"/><path class="cls-2" d="M412.28,401.12c-8.6-12.43-20.22-17.95-35.52-16.89-13.07.91-26.65,6.54-38.36,11.75a40.9,40.9,0,0,0-4.07,2.08l-.05,0c-20.35,11.86-27.44,38.67-23.34,54.1a10.51,10.51,0,0,0,6.57,7.58c5.17,2,12.15.59,17.08-.92a58.15,58.15,0,0,0,12.31-5.33,3.23,3.23,0,0,0,1.42-1.82h0a9.59,9.59,0,0,0-.36-4.42c-.71-3.17-1.58-7.11.62-12.22a15.73,15.73,0,0,1,7.11-7.27h0a22.47,22.47,0,0,1,6.87-2.32,20.48,20.48,0,0,1,18.93,6.63c7.41,8.26-.21,21.72-6.94,33.59-3,5.34-5.87,10.37-7.1,14.5-3.92,13.08,6.21,28,6.47,28.39a2.49,2.49,0,0,0,2,1.1,5.94,5.94,0,0,0,.87.06c4.5,0,12.64-3.79,16.1-5.51,6.55-3.25,12.94-7.21,15.2-9.43a1.7,1.7,0,0,0,.22-.24c1.66-1.94.72-5.14-.45-9.14-2-6.7-4.66-15.88,3.61-24.94,7.93-8.69,11.85-16.31,12.68-24.74C425.13,425.43,421.26,414.1,412.28,401.12Zm11.51,34.57c-.83,8.35-4.71,15.91-12.6,24.55-8.39,9.19-5.67,18.48-3.68,25.26,1.19,4.06,2.13,7.27.32,9a15.48,15.48,0,0,1-1.19,1l-.06,0a90.74,90.74,0,0,1-13.86,8.29c-7.76,3.85-13.88,5.83-16.79,5.42a2.19,2.19,0,0,1-1.72-.94v0c-.1-.14-10.33-15.08-6.43-28.11,1.22-4.09,4.07-9.11,7.07-14.42,6.78-12,14.46-25.54,6.9-34a20.71,20.71,0,0,0-15.61-7,23.57,23.57,0,0,0-3.62.3,22,22,0,0,0-6.08,1.91h0a16.4,16.4,0,0,0-8.16,7.89c-2.24,5.21-1.31,9.38-.64,12.42.42,1.88.76,3.38.26,4.56a2.9,2.9,0,0,1-1.17,1.34,56.5,56.5,0,0,1-12.22,5.29c-4.89,1.49-11.79,2.87-16.88.93a10.21,10.21,0,0,1-6.36-7.35c-3.94-14.83,2.53-40.22,21.23-52.53h0a41.17,41.17,0,0,1,6-3.3c25.9-11.52,55.07-21.57,73.48,5C420.94,414.23,424.79,425.47,423.79,435.69Z"/><path class="cls-2" d="M424.9,523.42c-8-12.18-19.4-16-32.14-10.84-.63.25-1.24.53-1.83.83-7.5,3.79-11.54,10.81-11.54,19.72a35.06,35.06,0,0,0,1.11,8.52A17.78,17.78,0,0,0,390,553.18a23.52,23.52,0,0,0,10.59,2.49,23.8,23.8,0,0,0,9-1.75,28.34,28.34,0,0,0,8.47-5.54h0A29.45,29.45,0,0,0,426.17,536C427.65,531.29,427.21,526.94,424.9,523.42Zm1,12.52a29.7,29.7,0,0,1-9.18,13.25l0,0a27.42,27.42,0,0,1-7.14,4.39,23.58,23.58,0,0,1-19.32-.73,17.42,17.42,0,0,1-9.34-11.31c-1.65-6.6-1.46-12.69.56-17.62a19.76,19.76,0,0,1,8.67-9.7,25.37,25.37,0,0,1,2.82-1.37c12.58-5.12,23.85-1.32,31.75,10.72C426.87,527,427.3,531.29,425.85,535.94Z"/><path class="cls-1" d="M966.87,531.76s5.24-11.93,14.79-14.46,31.25,1.64,34.57-9.45-6.73-20.16-14.21-19.08-8.44,7.46-11.8,5.88-21-13.32-12.56-22.19,29.4-14.47,44.29-4.23,34.1,24.67,24.36,46.72-22.39,24.21-36.28,21.54-17.28,12-22.13,10.74S964.88,535.4,966.87,531.76Z"/><path class="cls-1" d="M949.17,548.13c6.88-7,15.07-8.54,22.1-3.37s10.23,13.1,5.35,23.45c-3.73,7.9-17,7.19-24.08,2S943.05,554.36,949.17,548.13Z"/><path class="cls-2" d="M1039.56,485.47c-5.43-7.62-13.92-13.78-21.45-19a29.27,29.27,0,0,0-2.81-1.71h0c-14.79-7.94-33.74-2.26-41.58,6a7.43,7.43,0,0,0-2.16,6.81c1.33,7.17,11.88,14.2,14.75,15.56a2.3,2.3,0,0,0,1.64.18,6.75,6.75,0,0,0,2.56-1.87,12.84,12.84,0,0,1,7.66-4.17,11.09,11.09,0,0,1,7,1.6l0,0a15.5,15.5,0,0,1,4,3.31,14.6,14.6,0,0,1,3,14c-2.27,7.59-13.3,8-23,8.3-4.37.15-8.5.3-11.46,1.08-5,1.32-8.75,5.2-11,8.22a35,35,0,0,0-3.83,6.3,1.8,1.8,0,0,0,.06,1.61c2,4.59,17,13,21,14l.22,0h0l.14,0c1.74.16,3.3-1.56,5.24-3.7,3.35-3.69,7.93-8.76,16.52-7.11,8.25,1.59,14.34,1.13,19.78-1.5,6.64-3.22,12.08-9.8,16.63-20.1C1046.87,503.5,1045.91,494.38,1039.56,485.47Zm2.74,27.81c-4.53,10.24-9.94,16.78-16.52,20-5.39,2.61-11.44,3.07-19.63,1.49-8.72-1.68-13.36,3.44-16.74,7.18-2,2.24-3.62,4-5.39,3.56a10.71,10.71,0,0,1-1.08-.34l0,0c-5.44-2-18-9.52-19.76-13.53a1.55,1.55,0,0,1-.07-1.4h0a34.07,34.07,0,0,1,3.8-6.26c2.27-3,6-6.84,10.9-8.14,3-.78,7.06-.92,11.42-1.07,9.81-.34,20.92-.72,23.24-8.47a14.82,14.82,0,0,0-3.07-14.2,15.91,15.91,0,0,0-3.44-3h0a12.8,12.8,0,0,0-5.64-2.06,8.78,8.78,0,0,0-2.18,0,13.28,13.28,0,0,0-7.8,4.24,5.68,5.68,0,0,1-2.67,1.85h0a2,2,0,0,1-1.25-.21c-2.84-1.34-13.3-8.3-14.62-15.38a7.24,7.24,0,0,1,2.1-6.61c7.54-7.92,25.38-13.45,39.82-6.68h0a29.1,29.1,0,0,1,4.28,2.45C1034.63,478.16,1051.62,492.16,1042.3,513.28Z"/><path class="cls-2" d="M967.44,543c-.4-.29-.79-.57-1.2-.81h0a14.63,14.63,0,0,0-6.38-2.2c-4.94-.47-10.07,1.7-14.67,6.39a12.69,12.69,0,0,0-3.47,10.08,17.1,17.1,0,0,0,6.85,12.2,20.45,20.45,0,0,0,6.54,3.09h0a23.49,23.49,0,0,0,4,.73,19.41,19.41,0,0,0,6.5-.43,10.37,10.37,0,0,0,7.2-5.46C977.26,557.23,975.34,548.85,967.44,543Zm5.17,23.49a10.14,10.14,0,0,1-7.05,5.34,21.13,21.13,0,0,1-11.48-.64h0a19.32,19.32,0,0,1-5.36-2.72,16.79,16.79,0,0,1-6.75-12,12.47,12.47,0,0,1,3.4-9.9c3.4-3.46,7.18-5.61,10.93-6.22A14,14,0,0,1,965.4,542h0a14.53,14.53,0,0,1,1.88,1.2C975.1,549,977,557.24,972.61,566.53Z"/><path class="cls-3" d="M992.08,338.44s7.07-10.94,16.9-11.92,30.59,6.6,35.64-3.82-3.43-21-11-21.1-9.52,6-12.58,3.92-18.62-16.5-8.86-23.9,31.33-9.61,44.39,2.88,29.73,29.8,16.6,50-26,20.33-39.25,15.47-19,9-23.56,7.08S989.53,341.71,992.08,338.44Z"/><path class="cls-3" d="M972,351.77c7.92-5.83,16.24-6,22.36.2s8,14.56,1.53,24c-4.93,7.2-18,4.38-24.09-1.84S965,357,972,351.77Z"/><path class="cls-2" d="M1071.21,304.33c-4.14-8.38-11.54-15.83-18.15-22.14a28.84,28.84,0,0,0-2.47-2.12l0,0c-13.34-10.22-33-7.64-42-.75a7.47,7.47,0,0,0-3.23,6.38c.18,7.29,9.47,15.92,12.09,17.71a2.24,2.24,0,0,0,1.59.44,6.58,6.58,0,0,0,2.82-1.44,12.94,12.94,0,0,1,8.24-2.9,11.22,11.22,0,0,1,6.73,2.73h0a15.79,15.79,0,0,1,3.38,3.9,14.63,14.63,0,0,1,.76,14.29c-3.45,7.12-14.4,5.74-24.06,4.52-4.34-.55-8.44-1.07-11.49-.77-9.7,1-16.8,11.7-17,12a1.79,1.79,0,0,0-.19,1.59c1.25,4.87,14.67,15.54,18.53,17.21l.23.08a2.29,2.29,0,0,0,.77.12c1.51,0,3.15-1.31,5.13-2.9,3.89-3.11,9.23-7.38,17.44-4.37,7.89,2.88,14,3.4,19.77,1.66,7.07-2.12,13.49-7.74,19.63-17.19C1075.56,323.3,1076.06,314.14,1071.21,304.33Zm-1.72,27.89c-6.11,9.39-12.49,15-19.51,17.09-5.72,1.71-11.77,1.2-19.61-1.67-8.34-3.05-13.73,1.27-17.67,4.42-2.35,1.88-4.22,3.37-5.88,2.65a9.33,9.33,0,0,1-1-.5h0c-5-2.79-16.28-12.28-17.38-16.53a1.53,1.53,0,0,1,.17-1.38v0c.08-.11,7.16-10.9,16.82-11.86.61-.06,1.28-.09,2-.09a82.23,82.23,0,0,1,9.46.85c9.74,1.23,20.78,2.63,24.3-4.65a14.84,14.84,0,0,0-.77-14.52,15.53,15.53,0,0,0-2.91-3.49l0,0a11.64,11.64,0,0,0-7.38-3.22h-.23a13.29,13.29,0,0,0-8.14,2.95c-1.12.78-2,1.42-2.94,1.4h0a2,2,0,0,1-1.2-.41c-2.59-1.77-11.8-10.32-12-17.51a7.29,7.29,0,0,1,3.12-6.2c8.72-6.6,27.21-9.22,40.4-.23a31.11,31.11,0,0,1,3.84,3.11C1067.52,296.33,1082.06,312.86,1069.49,332.22Z"/><path class="cls-2" d="M990.84,349.66c-.34-.35-.67-.66-1-1h0a14.33,14.33,0,0,0-9.57-3.65c-3.82,0-7.9,1.47-11.9,4.42a12.66,12.66,0,0,0-5,9.4A17.1,17.1,0,0,0,968.11,372a20.36,20.36,0,0,0,6,4.11h0a21.8,21.8,0,0,0,8.87,2,13.56,13.56,0,0,0,1.43-.06,10.36,10.36,0,0,0,8-4.25C998.27,365.23,997.72,356.66,990.84,349.66Zm1.35,24a10.11,10.11,0,0,1-7.81,4.16,21,21,0,0,1-11.25-2.49h0a19.62,19.62,0,0,1-4.83-3.52,16.79,16.79,0,0,1-4.75-12.94,12.43,12.43,0,0,1,4.94-9.23c3.9-2.88,8-4.4,11.78-4.4a14,14,0,0,1,8.75,3.09h0a16.29,16.29,0,0,1,1.66,1.49C997.46,356.73,998,365.2,992.19,373.67Z"/><path class="cls-3" d="M237.07,324.17s-7.43-10.7-4.6-20.16,17.72-25.79,10-34.42-20.71-4.79-23.69,2.16,1.95,11.09-1.16,13.12-22.33,11-25.47-.88,3-32.62,19.52-40,38.85-16.19,52.57,3.63,8.95,31.75-.59,42.19,1.17,21-2.41,24.49S239.13,327.77,237.07,324.17Z"/><path class="cls-3" d="M241.78,347.82c-2.39-9.54.59-17.31,8.67-20.61s16.52-1.88,22.79,7.7c4.79,7.3-2.77,18.29-10.85,21.58S243.9,356.29,241.78,347.82Z"/><path class="cls-2" d="M260.91,250.06c-6.14-8.87-14.43-12.81-25.34-12.05-9.33.65-19,4.67-27.38,8.38a30.29,30.29,0,0,0-2.84,1.45l-.06,0c-14.54,8.46-19.61,27.61-16.68,38.63a7.47,7.47,0,0,0,4.68,5.41c3.69,1.41,8.67.42,12.19-.66a41,41,0,0,0,8.78-3.8,2.25,2.25,0,0,0,1-1.31A6.82,6.82,0,0,0,215,283a12.9,12.9,0,0,1,.44-8.72,11.18,11.18,0,0,1,5.06-5.18h0a15.59,15.59,0,0,1,4.9-1.66A14.64,14.64,0,0,1,239,272.14c5.28,5.91-.16,15.51-4.95,24-2.16,3.81-4.19,7.41-5.07,10.35-2.8,9.33,4.43,20,4.61,20.25a1.78,1.78,0,0,0,1.4.79,4.26,4.26,0,0,0,.64.05c5.49,0,19.43-7.83,22.32-10.66.05-.06.11-.11.15-.17h0c1.19-1.39.52-3.67-.31-6.51-1.41-4.78-3.33-11.34,2.57-17.8,5.66-6.2,8.45-11.64,9-17.65C270.08,267.41,267.32,259.33,260.91,250.06Zm8.21,24.67c-.59,5.95-3.37,11.35-9,17.51-6,6.56-4.06,13.19-2.63,18,.85,2.9,1.52,5.19.22,6.46-.21.21-.48.44-.79.7l-.05,0s0,0,0,0A64.87,64.87,0,0,1,247,323.4c-5.53,2.75-9.9,4.15-12,3.87a1.54,1.54,0,0,1-1.22-.68h0c-.07-.11-7.36-10.77-4.58-20.06.87-2.92,2.89-6.5,5.05-10.3C239,287.69,244.52,278,239.13,272A14.78,14.78,0,0,0,228,267a15,15,0,0,0-2.58.21,15.74,15.74,0,0,0-4.36,1.37,11.71,11.71,0,0,0-5.81,5.62,13.27,13.27,0,0,0-.46,8.86c.3,1.34.54,2.42.18,3.25a2.08,2.08,0,0,1-.83,1,40.68,40.68,0,0,1-8.72,3.77c-3.49,1.07-8.41,2.05-12,.66a7.21,7.21,0,0,1-4.54-5.24C186,275.86,190.64,257.75,204,249l.07-.05a31.92,31.92,0,0,1,4.24-2.3c18.48-8.21,39.29-15.39,52.42,3.59C267.09,259.41,269.84,267.44,269.12,274.73Z"/><path class="cls-2" d="M269.91,337.32c-5.69-8.69-13.84-11.44-22.93-7.74a13.55,13.55,0,0,0-1.28.59h0c-5.36,2.7-8.24,7.71-8.24,14.07a25.33,25.33,0,0,0,.79,6.08,12.7,12.7,0,0,0,6.79,8.22,16.78,16.78,0,0,0,7.57,1.77,17,17,0,0,0,6.41-1.24,20.34,20.34,0,0,0,6-4l0,0a20.86,20.86,0,0,0,5.74-8.78A10.33,10.33,0,0,0,269.91,337.32Zm.68,8.93A21.19,21.19,0,0,1,264,355.7l0,0a19.68,19.68,0,0,1-5.11,3.14,16.81,16.81,0,0,1-13.78-.52,13.28,13.28,0,0,1-4.29-3.39,11.8,11.8,0,0,1-2.37-4.68c-1.18-4.71-1-9.06.4-12.57a14,14,0,0,1,6.18-6.91h0a16.13,16.13,0,0,1,2-1,20,20,0,0,1,7.54-1.58c5.9,0,11.11,3.13,15.11,9.23A10.13,10.13,0,0,1,270.59,346.25Z"/><path class="cls-2" d="M496.61,288.46a26.28,26.28,0,0,1-5.69-1.06.59.59,0,0,0-.34,1.14,29,29,0,0,0,5.94,1.11h0a.58.58,0,0,0,.59-.55A.59.59,0,0,0,496.61,288.46Zm12.29-.54a.58.58,0,0,0-.71-.44,43.93,43.93,0,0,1-5.76.94.59.59,0,0,0,.05,1.18h.06a43.39,43.39,0,0,0,5.92-1A.58.58,0,0,0,508.9,287.92Zm11.16-4a.6.6,0,0,0-.79-.29c-1.84.82-3.67,1.56-5.45,2.18a.59.59,0,0,0-.37.75.58.58,0,0,0,.56.4.69.69,0,0,0,.2,0c1.81-.63,3.68-1.38,5.55-2.22A.6.6,0,0,0,520.06,284Zm-34.14.88a6.54,6.54,0,0,1-2.33-4.76.58.58,0,0,0-.61-.56.59.59,0,0,0-.57.62,7.65,7.65,0,0,0,2.72,5.58.57.57,0,0,0,.4.16.6.6,0,0,0,.39-1Zm44.52-6.58a.59.59,0,0,0-.82-.19c-1.68,1.06-3.4,2.07-5.08,3a.58.58,0,0,0-.24.8.59.59,0,0,0,.53.31.58.58,0,0,0,.28-.07c1.7-.93,3.44-1.94,5.15-3A.58.58,0,0,0,530.44,278.25Zm9.64-6.92a.6.6,0,0,0-.84-.1c-1.55,1.23-3.14,2.43-4.71,3.55a.57.57,0,0,0-.14.82.56.56,0,0,0,.48.25.53.53,0,0,0,.34-.11c1.59-1.13,3.2-2.34,4.77-3.58A.6.6,0,0,0,540.08,271.33ZM487.89,269a.59.59,0,0,0-.83.1,28,28,0,0,0-3.23,5.11.59.59,0,0,0,.28.79.57.57,0,0,0,.25.06.6.6,0,0,0,.54-.34,26.63,26.63,0,0,1,3.09-4.89A.59.59,0,0,0,487.89,269ZM549,263.47a.59.59,0,0,0-.84,0c-1.41,1.36-2.88,2.71-4.35,4a.6.6,0,0,0,0,.84.61.61,0,0,0,.45.2.62.62,0,0,0,.39-.15c1.48-1.3,3-2.66,4.39-4A.6.6,0,0,0,549,263.47Zm-52.66-2.86a.6.6,0,0,0-.84-.07c-1.6,1.34-3.08,2.7-4.41,4a.58.58,0,0,0,0,.84.55.55,0,0,0,.41.18.63.63,0,0,0,.43-.18c1.3-1.31,2.76-2.64,4.34-4A.61.61,0,0,0,496.3,260.61ZM557,254.79a.6.6,0,0,0-.84.07c-1.26,1.48-2.58,3-3.93,4.4a.58.58,0,0,0,0,.83.6.6,0,0,0,.41.17.63.63,0,0,0,.43-.19c1.36-1.45,2.7-2.95,4-4.44A.6.6,0,0,0,557,254.79Zm-51.15-1.15a.6.6,0,0,0-.82-.17c-1.7,1.1-3.35,2.25-4.91,3.39a.59.59,0,0,0-.13.82.61.61,0,0,0,.48.25.59.59,0,0,0,.35-.12c1.54-1.13,3.17-2.26,4.85-3.35A.6.6,0,0,0,505.89,253.64Zm120.41,0c-1.38-1.45-2.82-2.85-4.29-4.16a.59.59,0,0,0-.84.05.6.6,0,0,0,.05.84c1.45,1.28,2.87,2.66,4.22,4.08a.55.55,0,0,0,.42.19.62.62,0,0,0,.41-.16A.6.6,0,0,0,626.3,253.66Zm-110.14-5.95a.61.61,0,0,0-.81-.25c-1.77.93-3.52,1.9-5.21,2.88a.6.6,0,0,0,.3,1.11.55.55,0,0,0,.3-.09c1.67-1,3.41-1.93,5.17-2.85A.59.59,0,0,0,516.16,247.71Zm48-2.39a.6.6,0,0,0-.83.17c-1.08,1.59-2.24,3.2-3.45,4.78a.59.59,0,0,0,.11.83.62.62,0,0,0,.36.12.58.58,0,0,0,.47-.23c1.23-1.6,2.4-3.23,3.49-4.84A.6.6,0,0,0,564.19,245.32Zm53.17.42c-1.59-1.18-3.26-2.3-5-3.33a.6.6,0,0,0-.82.2.59.59,0,0,0,.2.81c1.67,1,3.31,2.11,4.88,3.27a.59.59,0,1,0,.7-.95Zm-90.45-3a.6.6,0,0,0-.78-.32c-1.82.77-3.65,1.58-5.44,2.42a.59.59,0,0,0,.25,1.13.62.62,0,0,0,.26-.06c1.77-.83,3.58-1.64,5.39-2.4A.58.58,0,0,0,526.91,242.71ZM570.08,235a.59.59,0,0,0-.79.28c-.82,1.7-1.76,3.44-2.78,5.18a.59.59,0,0,0,.21.81.54.54,0,0,0,.3.08.59.59,0,0,0,.51-.29c1-1.76,2-3.54,2.82-5.27A.58.58,0,0,0,570.08,235Zm-32,3.59a.6.6,0,0,0-.75-.38c-1.88.6-3.77,1.26-5.63,2a.59.59,0,0,0,.21,1.14.45.45,0,0,0,.2,0c1.85-.68,3.72-1.33,5.58-1.93A.61.61,0,0,0,538.05,238.63Zm69.1.92c-1.78-.86-3.62-1.65-5.48-2.37a.6.6,0,0,0-.43,1.11q2.76,1.05,5.39,2.33a.59.59,0,0,0,.79-.27A.61.61,0,0,0,607.15,239.55Zm-57.66-4a.6.6,0,0,0-.71-.45c-1.91.43-3.86.92-5.78,1.45a.59.59,0,0,0-.41.73.6.6,0,0,0,.57.43l.16,0c1.9-.52,3.82-1,5.72-1.44A.59.59,0,0,0,549.49,235.55ZM596,235.3c-1.88-.54-3.84-1-5.8-1.42a.6.6,0,0,0-.7.47.58.58,0,0,0,.46.69c1.94.4,3.86.86,5.71,1.4l.17,0a.59.59,0,0,0,.16-1.16ZM560.51,233c-1.94.24-3.93.53-5.9.88a.59.59,0,0,0-.47.69.58.58,0,0,0,.58.49h.1c1.95-.35,3.92-.64,5.83-.88a.58.58,0,0,0,.52-.65A.59.59,0,0,0,560.51,233Zm23.8-.12c-1.94-.24-3.94-.43-5.94-.54a.61.61,0,0,0-.63.56.59.59,0,0,0,.56.62c2,.12,4,.29,5.86.53h.08a.59.59,0,0,0,.07-1.18Zm-11.9-.68h0c-1.95,0-4,.09-5.95.23a.59.59,0,0,0-.56.63.6.6,0,0,0,.59.55h0c2-.13,4-.21,5.88-.22a.6.6,0,0,0,.59-.6A.59.59,0,0,0,572.41,232.24Zm1.6-8.35a.58.58,0,0,0-.71.44,44.64,44.64,0,0,1-1.7,5.59.6.6,0,0,0,.35.77.76.76,0,0,0,.21,0,.61.61,0,0,0,.56-.38,49.31,49.31,0,0,0,1.73-5.74A.58.58,0,0,0,574,223.89Zm1-11.29a.58.58,0,0,0-.69-.47.59.59,0,0,0-.47.69,23.71,23.71,0,0,1,.39,4.3c0,.47,0,1,0,1.45a.59.59,0,0,0,.56.63h0a.6.6,0,0,0,.59-.56c0-.51,0-1,0-1.52A24.27,24.27,0,0,0,575,212.6Zm-2-5.73a18.62,18.62,0,0,0-3.8-4.77.59.59,0,0,0-.83,0,.6.6,0,0,0,0,.84,17.63,17.63,0,0,1,3.55,4.47.61.61,0,0,0,.52.31.61.61,0,0,0,.52-.88Zm-8.79-8.2-.31-.15c-1.66-.83-3.39-1.62-5.13-2.34a.6.6,0,0,0-.77.33.58.58,0,0,0,.32.77c1.71.71,3.41,1.48,5,2.3l.29.14a.54.54,0,0,0,.27.07.57.57,0,0,0,.53-.32A.59.59,0,0,0,564.13,198.67Zm-80.64-1.8a.58.58,0,0,0-.75-.38c-3.54,1.15-5.55,2-5.63,2a.6.6,0,0,0-.32.78.57.57,0,0,0,.77.32s2.06-.85,5.55-2A.59.59,0,0,0,483.49,196.87Zm11.44-3.12a.6.6,0,0,0-.71-.45c-1.93.46-3.87.95-5.77,1.47a.61.61,0,0,0-.42.73.62.62,0,0,0,.58.44.4.4,0,0,0,.15,0c1.89-.51,3.81-1,5.73-1.45A.59.59,0,0,0,494.93,193.75Zm58.16.39c-1.87-.61-3.8-1.16-5.74-1.64a.59.59,0,0,0-.72.43.6.6,0,0,0,.43.72c1.92.47,3.82,1,5.66,1.61a.63.63,0,0,0,.19,0,.6.6,0,0,0,.56-.41A.58.58,0,0,0,553.09,194.14Zm-47.17-3c-1.94.28-3.92.61-5.87,1a.59.59,0,0,0-.48.69.6.6,0,0,0,.59.48h.11c1.94-.36,3.9-.69,5.82-1a.59.59,0,0,0-.17-1.17Zm35.6.17c-1.93-.35-3.91-.63-5.9-.86a.59.59,0,0,0-.14,1.18c2,.22,3.93.5,5.83.84h.1A.58.58,0,0,0,542,192,.57.57,0,0,0,541.52,191.27Zm-23.75-1.35c-2,.1-3.95.25-5.94.45a.6.6,0,0,0-.53.65.59.59,0,0,0,.59.53H512c2-.19,3.95-.34,5.88-.44a.59.59,0,0,0,.56-.62A.6.6,0,0,0,517.77,189.92Zm11.91,0c-1.92-.1-3.89-.16-5.86-.16h-.1a.6.6,0,0,0-.59.6.59.59,0,0,0,.59.59h.1c1.95,0,3.9.05,5.79.15h0a.59.59,0,0,0,.59-.56A.6.6,0,0,0,529.68,189.92Z"/><path class="cls-2" d="M416.53,351.78c-2,0-4,0-5.92-.11a.59.59,0,0,0-.6.58.58.58,0,0,0,.57.61c1.93.06,3.94.1,5.94.11a.6.6,0,1,0,0-1.19Zm11.84-.21c-2,.08-4,.14-5.93.18a.59.59,0,0,0-.58.6.6.6,0,0,0,.59.58h0c1.94,0,3.95-.1,5.95-.18a.59.59,0,0,0,.57-.61A.61.61,0,0,0,428.37,351.57Zm-23.66-.17c-2-.12-4-.27-5.89-.44a.58.58,0,0,0-.64.53.6.6,0,0,0,.53.65c1.94.17,3.93.32,5.93.45h0a.59.59,0,0,0,.59-.56A.6.6,0,0,0,404.71,351.4Zm35.49-.55c-2,.16-4,.3-5.91.42a.59.59,0,0,0,0,1.18h0c1.95-.12,3.94-.26,5.93-.42a.59.59,0,1,0-.09-1.18ZM452,349.7c-2,.22-3.94.44-5.88.63a.59.59,0,0,0,.06,1.18h.06c1.94-.18,3.93-.39,5.9-.62a.59.59,0,0,0-.14-1.18Zm-59,.61c-2-.25-3.94-.54-5.84-.86a.59.59,0,1,0-.19,1.16c1.91.33,3.88.62,5.88.88h.08a.59.59,0,0,0,.07-1.18Zm70.77-2.13c-2,.29-4,.56-5.87.8a.6.6,0,0,0-.51.67.59.59,0,0,0,.59.52H458c1.92-.25,3.9-.52,5.88-.81a.59.59,0,1,0-.17-1.17Zm-82.4.16c-2-.42-3.89-.88-5.74-1.38a.59.59,0,0,0-.72.43.58.58,0,0,0,.42.72c1.86.5,3.82,1,5.79,1.39h.13a.59.59,0,0,0,.12-1.17Zm94.1-2c-1.95.33-3.92.65-5.85,1a.59.59,0,0,0,.09,1.18h.1c1.93-.3,3.9-.63,5.86-1a.58.58,0,0,0,.48-.68A.58.58,0,0,0,475.42,346.33Zm11.65-2.16c-1.94.38-3.9.76-5.82,1.11a.6.6,0,0,0-.48.69.61.61,0,0,0,.59.49h.11c1.93-.36,3.89-.73,5.83-1.12a.59.59,0,0,0,.47-.69A.6.6,0,0,0,487.07,344.17Zm-117.14,1.12c-1.9-.62-3.76-1.3-5.53-2a.59.59,0,1,0-.44,1.09c1.8.72,3.68,1.41,5.6,2l.19,0a.59.59,0,0,0,.18-1.16Zm129.45-3.1a.6.6,0,0,0-.71-.45c-1.9.42-3.82.84-5.8,1.25a.58.58,0,0,0-.45.7.59.59,0,0,0,.58.47h.12c2-.42,3.91-.83,5.81-1.25A.6.6,0,0,0,499.38,342.19ZM359,340.91c-1.79-.87-3.54-1.8-5.18-2.77a.59.59,0,1,0-.61,1c1.68,1,3.45,1.93,5.27,2.82a.58.58,0,0,0,.26,0,.59.59,0,0,0,.26-1.12Zm151.91-1.42a.58.58,0,0,0-.71-.43q-2.81.68-5.77,1.37a.58.58,0,0,0-.44.71.6.6,0,0,0,.57.46l.14,0c2-.46,3.91-.91,5.78-1.37A.59.59,0,0,0,510.93,339.49Zm11.5-2.95a.61.61,0,0,0-.73-.42q-2.73.74-5.73,1.5a.59.59,0,0,0,.14,1.16h.15c2-.51,3.92-1,5.75-1.51A.59.59,0,0,0,522.43,336.54Zm-173.52-1.61c-1.6-1.15-3.14-2.38-4.59-3.65a.6.6,0,0,0-.83.05.59.59,0,0,0,.05.84c1.47,1.3,3,2.55,4.69,3.73a.59.59,0,0,0,.34.1.57.57,0,0,0,.48-.24A.59.59,0,0,0,348.91,334.93Zm185-1.59a.59.59,0,0,0-.73-.4c-1.87.54-3.8,1.09-5.71,1.62a.6.6,0,0,0-.41.73.61.61,0,0,0,.57.44.45.45,0,0,0,.16,0c1.92-.53,3.84-1.08,5.72-1.62A.6.6,0,0,0,533.86,333.34Zm11.36-3.51a.59.59,0,0,0-.75-.38s-2.05.69-5.66,1.79a.6.6,0,0,0,.17,1.17l.18,0c3.62-1.11,5.67-1.79,5.69-1.8A.59.59,0,0,0,545.22,329.83Zm-205.09-2.64L340,327c-1.28-1.41-2.54-2.84-3.75-4.28a.59.59,0,0,0-.83-.07.6.6,0,0,0-.07.84c1.21,1.45,2.49,2.89,3.78,4.3l.14.17a.63.63,0,0,0,.44.19.57.57,0,0,0,.4-.16A.58.58,0,0,0,340.13,327.19Zm-7.6-9c-1.21-1.55-2.4-3.14-3.53-4.74a.6.6,0,0,0-.83-.13.59.59,0,0,0-.13.82c1.14,1.61,2.33,3.21,3.55,4.78a.6.6,0,0,0,.47.23.61.61,0,0,0,.36-.13A.59.59,0,0,0,332.53,318.17Zm-6.85-9.61c-1.06-1.65-2.11-3.34-3.1-5a.59.59,0,0,0-1,.6c1,1.7,2.05,3.4,3.13,5.06a.58.58,0,0,0,.5.27.62.62,0,0,0,.32-.09A.58.58,0,0,0,325.68,308.56Zm-6-10.17c-.92-1.73-1.81-3.51-2.64-5.27a.59.59,0,1,0-1.07.5c.83,1.78,1.73,3.57,2.66,5.33a.58.58,0,0,0,.53.31.54.54,0,0,0,.27-.07A.59.59,0,0,0,319.71,298.39Zm-5-10.67c-.75-1.81-1.47-3.66-2.13-5.5a.6.6,0,0,0-1.12.41c.67,1.85,1.4,3.72,2.16,5.55a.59.59,0,0,0,.54.36.62.62,0,0,0,.23,0A.6.6,0,0,0,314.68,287.72Zm-4-11.09c-.58-1.88-1.11-3.79-1.59-5.68a.59.59,0,1,0-1.15.29c.49,1.91,1,3.84,1.6,5.74a.61.61,0,0,0,.57.42.51.51,0,0,0,.17,0A.6.6,0,0,0,310.69,276.63Zm-3.9-17.24a.59.59,0,1,0-1.17.17c.28,1.95.63,3.93,1,5.87a.59.59,0,0,0,.58.48h.11a.6.6,0,0,0,.47-.7C307.42,263.28,307.07,261.32,306.79,259.39Zm-1.1-11.73a.59.59,0,0,0-1.18,0c.08,2,.21,4,.4,6a.59.59,0,0,0,.59.54h.06a.6.6,0,0,0,.53-.65C305.9,251.58,305.77,249.6,305.69,247.66Zm-.35-12.42a.61.61,0,0,0-.64.55c-.14,2-.23,4-.26,6a.58.58,0,0,0,.58.6h0a.58.58,0,0,0,.59-.58c0-2,.12-4,.27-5.89A.61.61,0,0,0,305.34,235.24ZM307,223.52a.55.55,0,0,0-.22,0,.59.59,0,0,0-.49-.22q-2.85.15-5.88.09a.6.6,0,1,0,0,1.19c2,0,3.94,0,5.81-.09-.34,1.76-.64,3.57-.88,5.38a.58.58,0,0,0,.51.67h.07a.59.59,0,0,0,.59-.52c.26-2,.59-3.91,1-5.81A.58.58,0,0,0,307,223.52Zm-12.48-.41c-1.9-.14-3.88-.33-5.87-.57a.59.59,0,1,0-.14,1.17c2,.25,4,.44,5.92.59h.05a.6.6,0,0,0,0-1.19Zm24.1-.94a.59.59,0,0,0-.71-.44,55.32,55.32,0,0,1-5.77,1,.61.61,0,0,0-.51.67.6.6,0,0,0,.59.52h.08c2-.27,4-.62,5.88-1.05A.6.6,0,0,0,318.62,222.17Zm-35.77-.56c-1.94-.39-3.86-.86-5.7-1.41a.6.6,0,0,0-.74.41.59.59,0,0,0,.41.73c1.87.55,3.82,1,5.8,1.43h.11a.59.59,0,0,0,.12-1.17Zm46.79-3.69a.58.58,0,0,0-.8-.23,39.84,39.84,0,0,1-5.32,2.39.59.59,0,0,0,.21,1.14.42.42,0,0,0,.19,0,39.85,39.85,0,0,0,5.48-2.46A.6.6,0,0,0,329.64,217.92Zm-58,.36a55.87,55.87,0,0,1-5.31-2.47.6.6,0,0,0-.8.26.57.57,0,0,0,.24.79,55.91,55.91,0,0,0,5.43,2.52.57.57,0,0,0,.22,0,.59.59,0,0,0,.22-1.14Zm38.62-6.16a.59.59,0,0,0-.76.36c-.66,1.83-1.26,3.75-1.79,5.7a.57.57,0,0,0,.41.72.41.41,0,0,0,.15,0,.6.6,0,0,0,.58-.43c.52-1.92,1.12-3.8,1.76-5.61A.59.59,0,0,0,310.23,212.12Zm28.28-1.91a.59.59,0,0,0-.83.11,25.35,25.35,0,0,1-4,4.14.6.6,0,0,0,.38,1,.59.59,0,0,0,.38-.14,26.43,26.43,0,0,0,4.21-4.33A.59.59,0,0,0,338.51,210.21Zm-77.24,2.6a52.33,52.33,0,0,1-4.65-3.55.6.6,0,0,0-.78.9,53,53,0,0,0,4.77,3.63.56.56,0,0,0,.33.1.58.58,0,0,0,.49-.26A.59.59,0,0,0,261.27,212.81Zm54.05-11.37a.59.59,0,0,0-.81.2,56.36,56.36,0,0,0-2.78,5.31.58.58,0,0,0,.29.78.52.52,0,0,0,.24.05.6.6,0,0,0,.55-.34,55.05,55.05,0,0,1,2.72-5.19A.6.6,0,0,0,315.32,201.44Zm-62.93,3.77a52.31,52.31,0,0,1-3.74-4.51.59.59,0,0,0-.82-.13.6.6,0,0,0-.13.84,54.3,54.3,0,0,0,3.82,4.61.62.62,0,0,0,.44.18.57.57,0,0,0,.4-.15A.6.6,0,0,0,252.39,205.21Zm90.05-6a.58.58,0,0,0-.62.55,18.29,18.29,0,0,1-1.28,5.57.6.6,0,0,0,.33.77.54.54,0,0,0,.22,0,.58.58,0,0,0,.55-.37,18.88,18.88,0,0,0,1.36-5.94A.59.59,0,0,0,342.44,199.22Zm-19.66-6.94a.6.6,0,0,0-.84,0,36.51,36.51,0,0,0-4.06,4.44.59.59,0,0,0,.1.83.62.62,0,0,0,.36.12.56.56,0,0,0,.47-.23,36.41,36.41,0,0,1,3.93-4.29A.6.6,0,0,0,322.78,192.28Zm-77.33,3.52a55.62,55.62,0,0,1-2.64-5.23.6.6,0,0,0-1.09.48,55.68,55.68,0,0,0,2.71,5.34.57.57,0,0,0,.51.3.6.6,0,0,0,.29-.08A.59.59,0,0,0,245.45,195.8Zm96.74-2a10.9,10.9,0,0,0-3.55-5.05.59.59,0,1,0-.72.94,9.74,9.74,0,0,1,3.16,4.51.59.59,0,0,0,.56.39.63.63,0,0,0,.19,0A.59.59,0,0,0,342.19,193.77Zm-9.48-6.88a13.51,13.51,0,0,0-5.88,1.78.59.59,0,0,0,.57,1,12.35,12.35,0,0,1,5.36-1.63.59.59,0,0,0,.56-.62A.6.6,0,0,0,332.71,186.89Zm-92-1.8a56,56,0,0,1-1.5-5.66.6.6,0,0,0-.7-.46.58.58,0,0,0-.46.7,57.69,57.69,0,0,0,1.53,5.78.58.58,0,0,0,.57.41.55.55,0,0,0,.18,0A.59.59,0,0,0,240.74,185.09Zm-2.85-17.31a.59.59,0,0,0-1.18,0c0,2,.18,4,.4,6a.59.59,0,0,0,.59.52h.07a.59.59,0,0,0,.52-.66C238.07,171.72,237.94,169.75,237.89,167.78Zm.27-12.38a.59.59,0,0,0-.67.5c-.3,2-.52,4-.65,5.94a.59.59,0,0,0,.55.63h0a.59.59,0,0,0,.59-.55c.13-1.94.35-3.91.64-5.84A.6.6,0,0,0,238.16,155.4ZM241,143.91a.59.59,0,0,0-.74.38c-.63,1.89-1.17,3.82-1.63,5.75a.58.58,0,0,0,.44.71l.14,0a.6.6,0,0,0,.57-.46c.45-1.89,1-3.79,1.6-5.65A.58.58,0,0,0,241,143.91ZM245.68,133a.59.59,0,0,0-.8.25c-.91,1.77-1.76,3.59-2.53,5.42a.6.6,0,0,0,.55.82.61.61,0,0,0,.55-.37c.75-1.79,1.58-3.58,2.48-5.32A.59.59,0,0,0,245.68,133ZM252,123a.59.59,0,0,0-.83.12c-1.17,1.61-2.3,3.27-3.34,5a.6.6,0,0,0,.19.82.58.58,0,0,0,.81-.2c1-1.65,2.14-3.29,3.29-4.86A.59.59,0,0,0,252,123Zm7.79-8.92a.58.58,0,0,0-.84,0c-1.41,1.4-2.77,2.87-4.06,4.37a.59.59,0,0,0,.06.84.59.59,0,0,0,.83-.07c1.28-1.47,2.62-2.92,4-4.3A.6.6,0,0,0,259.79,114.1Zm9-7.64a.58.58,0,0,0-.82-.13c-1.61,1.18-3.17,2.43-4.67,3.71a.6.6,0,0,0,.39,1,.62.62,0,0,0,.38-.14c1.47-1.27,3-2.5,4.6-3.67A.58.58,0,0,0,268.82,106.46Zm10.05-6.27a.6.6,0,0,0-.8-.24c-1.75,1-3.48,2-5.15,3a.59.59,0,0,0,.32,1.09.65.65,0,0,0,.32-.09c1.64-1,3.35-2,5.07-3A.6.6,0,0,0,278.87,100.19Zm10.81-4.83a.59.59,0,0,0-.76-.34c-1.86.7-3.72,1.47-5.51,2.28a.6.6,0,0,0,.25,1.14.57.57,0,0,0,.25-.06c1.76-.8,3.59-1.56,5.43-2.25A.59.59,0,0,0,289.68,95.36Zm6.88-2.26a.59.59,0,0,0-.73-.4l-1.27.38a.6.6,0,0,0-.39.75.59.59,0,0,0,.56.41.55.55,0,0,0,.18,0l1.25-.38A.59.59,0,0,0,296.56,93.1Z"/><path class="cls-2" d="M304.26,497.29c-1.92.26-3.88.43-5.85.51a.6.6,0,0,0,0,1.19h0c2-.09,4-.26,6-.53a.59.59,0,0,0,.5-.66A.58.58,0,0,0,304.26,497.29Zm-11.73.5c-1.94-.09-3.92-.26-5.85-.52a.59.59,0,0,0-.16,1.17c2,.26,4,.44,6,.53h0a.59.59,0,0,0,.59-.56A.6.6,0,0,0,292.53,497.79Zm-11.63-1.55c-1.92-.43-3.82-.95-5.67-1.54a.6.6,0,0,0-.75.38.61.61,0,0,0,.39.75c1.87.6,3.82,1.13,5.77,1.57h.13a.59.59,0,0,0,.13-1.17ZM316.41,495a.6.6,0,0,0-.76-.37,56.15,56.15,0,0,1-5.62,1.64.58.58,0,0,0-.44.71.6.6,0,0,0,.57.46.34.34,0,0,0,.14,0,55.2,55.2,0,0,0,5.74-1.67A.58.58,0,0,0,316.41,495Zm-46.67-2.32a57,57,0,0,1-5.26-2.58.6.6,0,1,0-.58,1,59.37,59.37,0,0,0,5.37,2.63.5.5,0,0,0,.23,0,.6.6,0,0,0,.55-.36A.6.6,0,0,0,269.74,492.64Zm56-2.21a.6.6,0,0,0-.82-.2,43.31,43.31,0,0,1-3.86,2.12.58.58,0,0,0-.27.79.59.59,0,0,0,.53.34.76.76,0,0,0,.26-.06c1.37-.67,2.71-1.4,4-2.17A.61.61,0,0,0,325.74,490.43Zm-66.22-3.49a52.9,52.9,0,0,1-4.56-3.66.59.59,0,1,0-.79.87,49,49,0,0,0,4.66,3.75.58.58,0,0,0,.35.11.59.59,0,0,0,.48-.25A.58.58,0,0,0,259.52,486.94Zm-8.63-7.85a43.51,43.51,0,0,1-3.49-4.69.6.6,0,0,0-.82-.17.59.59,0,0,0-.18.82,46,46,0,0,0,3.58,4.8.6.6,0,0,0,.46.21.56.56,0,0,0,.38-.14A.59.59,0,0,0,250.89,479.09Zm-6.32-9.79a44.16,44.16,0,0,1-2.1-5.45.6.6,0,0,0-1.14.35,45.06,45.06,0,0,0,2.17,5.6.58.58,0,0,0,.53.33.6.6,0,0,0,.26-.05A.59.59,0,0,0,244.57,469.3Zm-4.14-16.94a.59.59,0,0,0-.63-.55.58.58,0,0,0-.55.62,50.12,50.12,0,0,0,.67,5.95.6.6,0,0,0,.59.49h.1a.59.59,0,0,0,.48-.69A49.62,49.62,0,0,1,240.43,452.36ZM240.5,440a.59.59,0,0,0-.67.51c-.29,2-.49,4-.59,5.95a.59.59,0,0,0,.56.62h0a.59.59,0,0,0,.59-.56c.1-1.91.29-3.87.58-5.84A.59.59,0,0,0,240.5,440Zm2.72-11.52a.59.59,0,0,0-.74.39c-.59,1.93-1.1,3.87-1.54,5.77a.58.58,0,0,0,.44.71h.13a.58.58,0,0,0,.58-.46c.43-1.86.94-3.78,1.53-5.68A.61.61,0,0,0,243.22,428.47Zm4.22-11.07a.59.59,0,0,0-.78.3c-.82,1.85-1.57,3.71-2.26,5.52a.6.6,0,0,0,.35.77l.21,0a.57.57,0,0,0,.55-.38c.68-1.8,1.43-3.63,2.23-5.46A.59.59,0,0,0,247.44,417.4Zm5.36-10.57a.59.59,0,0,0-.81.23c-1,1.76-1.92,3.52-2.79,5.25a.61.61,0,0,0,.53.87.59.59,0,0,0,.53-.34c.86-1.71,1.79-3.46,2.77-5.2A.6.6,0,0,0,252.8,406.83ZM259,396.74a.6.6,0,0,0-.83.17c-1.11,1.67-2.19,3.36-3.2,5a.6.6,0,0,0,.19.82.59.59,0,0,0,.31.09.62.62,0,0,0,.51-.29c1-1.64,2.08-3.31,3.18-5A.59.59,0,0,0,259,396.74ZM266,387.1a.59.59,0,0,0-.83.11c-1.21,1.59-2.4,3.21-3.53,4.79a.58.58,0,0,0,.14.82.54.54,0,0,0,.34.12.64.64,0,0,0,.49-.25c1.12-1.57,2.3-3.18,3.5-4.76A.59.59,0,0,0,266,387.1Zm7.46-9.22a.6.6,0,0,0-.84.07c-1.29,1.53-2.57,3.07-3.79,4.58a.61.61,0,0,0,.09.84.58.58,0,0,0,.37.13.57.57,0,0,0,.47-.23c1.21-1.5,2.48-3,3.77-4.55A.6.6,0,0,0,273.42,377.88Zm7.91-8.85a.6.6,0,0,0-.84,0c-1.36,1.46-2.71,2.95-4,4.4a.6.6,0,0,0,0,.84.68.68,0,0,0,.4.15.6.6,0,0,0,.44-.2c1.29-1.45,2.63-2.92,4-4.38A.61.61,0,0,0,281.33,369Zm8.27-8.51a.59.59,0,0,0-.83,0c-1.42,1.4-2.83,2.82-4.19,4.23a.6.6,0,0,0,0,.84.63.63,0,0,0,.42.17.55.55,0,0,0,.42-.19c1.36-1.39,2.76-2.81,4.17-4.21A.6.6,0,0,0,289.6,360.52Zm8.6-8.18a.59.59,0,0,0-.84,0c-1.46,1.34-2.92,2.71-4.34,4.07a.59.59,0,0,0,0,.83.61.61,0,0,0,.43.18.57.57,0,0,0,.41-.16c1.42-1.35,2.87-2.72,4.32-4.06A.58.58,0,0,0,298.2,352.34Zm8.89-7.88a.59.59,0,0,0-.84-.06c-1.5,1.28-3,2.6-4.48,3.91a.6.6,0,0,0,0,.84.61.61,0,0,0,.45.2.6.6,0,0,0,.39-.15c1.46-1.31,3-2.62,4.46-3.91A.59.59,0,0,0,307.09,344.46Zm9.15-7.57a.59.59,0,0,0-.83-.1c-1.52,1.22-3.08,2.49-4.62,3.76a.59.59,0,0,0-.07.84.57.57,0,0,0,.45.21.58.58,0,0,0,.38-.13c1.53-1.28,3.08-2.54,4.6-3.75A.6.6,0,0,0,316.24,336.89Zm9.48-7.21a.59.59,0,0,0-.83-.15s-1.8,1.28-4.8,3.59a.59.59,0,0,0-.11.83.61.61,0,0,0,.47.23.6.6,0,0,0,.36-.12c3-2.29,4.75-3.55,4.77-3.56A.58.58,0,0,0,325.72,329.68Z"/><path class="cls-2" d="M183.21,394.11c-2,.12-4,.17-5.86.11a.6.6,0,0,0-.62.58.58.58,0,0,0,.58.6c.58,0,1.16,0,1.75,0,1.38,0,2.81,0,4.23-.14a.59.59,0,0,0-.08-1.18Zm-11.71-.35a49.86,49.86,0,0,1-5.75-1.09.59.59,0,0,0-.71.44.58.58,0,0,0,.43.71,51.29,51.29,0,0,0,5.88,1.11h.08a.61.61,0,0,0,.59-.51A.6.6,0,0,0,171.5,393.76Zm24-.91a.6.6,0,0,0-.71-.45c-1.94.44-3.88.8-5.78,1.08a.59.59,0,0,0,.09,1.18h.09c1.92-.29,3.89-.66,5.86-1.1A.6.6,0,0,0,195.54,392.85Zm-35.36-1.91a48.33,48.33,0,0,1-5.34-2.4.59.59,0,0,0-.55,1,51.45,51.45,0,0,0,5.46,2.46.78.78,0,0,0,.22,0,.59.59,0,0,0,.55-.38A.6.6,0,0,0,160.18,390.94Zm46.23-2.83a.59.59,0,0,0-.81-.23,51.41,51.41,0,0,1-5.26,2.6.59.59,0,0,0-.31.78.58.58,0,0,0,.54.35.59.59,0,0,0,.23,0,56.14,56.14,0,0,0,5.39-2.65A.6.6,0,0,0,206.41,388.11Zm-56.56-2.6a48.44,48.44,0,0,1-4.59-3.63.6.6,0,0,0-.84.05.59.59,0,0,0,.05.84,50.36,50.36,0,0,0,4.7,3.71.61.61,0,0,0,.34.1.58.58,0,0,0,.48-.25A.59.59,0,0,0,149.85,385.51Zm65.89-4.67a.6.6,0,0,0-.84,0,35.82,35.82,0,0,1-4.39,3.84.59.59,0,0,0,.35,1.07.6.6,0,0,0,.36-.12,39,39,0,0,0,4.53-4A.6.6,0,0,0,215.74,380.84Zm-74.63-3.09a56.91,56.91,0,0,1-3.66-4.58.59.59,0,1,0-1,.69,57.21,57.21,0,0,0,3.74,4.68.63.63,0,0,0,.44.19.62.62,0,0,0,.4-.15A.59.59,0,0,0,141.11,377.75Zm80.8-6.92a.6.6,0,0,0-.77.35,25.2,25.2,0,0,1-2.61,5.15.59.59,0,0,0,.18.82.53.53,0,0,0,.32.1.58.58,0,0,0,.5-.27,26.73,26.73,0,0,0,2.72-5.39A.58.58,0,0,0,221.91,370.83Zm-87.61-2.6c-1-1.67-1.85-3.43-2.66-5.22a.6.6,0,0,0-.79-.3.59.59,0,0,0-.29.78c.82,1.83,1.73,3.62,2.71,5.33a.58.58,0,0,0,.51.3.51.51,0,0,0,.29-.08A.59.59,0,0,0,134.3,368.23Zm-4.81-10.69c-.64-1.84-1.19-3.74-1.65-5.63a.6.6,0,0,0-.72-.44.59.59,0,0,0-.43.72c.46,1.93,1,3.86,1.67,5.74a.61.61,0,0,0,.56.4.63.63,0,0,0,.19,0A.61.61,0,0,0,129.49,357.54Zm42.23-7.42a16.35,16.35,0,0,1-2.64-.74,10.64,10.64,0,0,1-2.56-1.38.58.58,0,0,0-.82.12.59.59,0,0,0,.13.83,11.46,11.46,0,0,0,2.85,1.54,18.11,18.11,0,0,0,2.82.8h.11a.59.59,0,0,0,.58-.48A.61.61,0,0,0,171.72,350.12Zm8.85-5.57a.6.6,0,0,0-.71.45,6.59,6.59,0,0,1-2.82,4.48.59.59,0,0,0-.19.82.57.57,0,0,0,.5.28.61.61,0,0,0,.31-.09,7.75,7.75,0,0,0,3.36-5.24A.59.59,0,0,0,180.57,344.55Zm-54.44-4.25a.58.58,0,0,0-.62-.56.6.6,0,0,0-.56.62c.1,2,.3,4,.59,6a.6.6,0,0,0,.59.51h.08a.59.59,0,0,0,.5-.68C126.42,344.19,126.23,342.23,126.13,340.3Zm36.55,3.51a30.9,30.9,0,0,1-2.65-5.15.59.59,0,0,0-1.1.44,30.48,30.48,0,0,0,2.77,5.36.57.57,0,0,0,.49.27.59.59,0,0,0,.49-.92Zm17.17-10.54a.59.59,0,1,0-1.12.37A31,31,0,0,1,180,339.3a.59.59,0,0,0,.59.52h.07a.61.61,0,0,0,.52-.66A31.91,31.91,0,0,0,179.85,333.27Zm-53.51-5.33a.59.59,0,0,0-.68.48,49.08,49.08,0,0,0-.7,6,.61.61,0,0,0,.56.62h0a.59.59,0,0,0,.59-.56,46.65,46.65,0,0,1,.68-5.81A.6.6,0,0,0,126.34,327.94Zm31.84,5.17c-.48-1.8-.91-3.72-1.27-5.74a.59.59,0,0,0-.69-.48.59.59,0,0,0-.47.69c.36,2.05.8,4,1.29,5.83a.59.59,0,0,0,.57.44.44.44,0,0,0,.16,0A.59.59,0,0,0,158.18,333.11Zm19.41-5.41a43.24,43.24,0,0,0-3-5.19.59.59,0,1,0-1,.65,45,45,0,0,1,2.93,5.07.6.6,0,0,0,.53.33.58.58,0,0,0,.26-.06A.6.6,0,0,0,177.59,327.7Zm-47.16-10.82a.59.59,0,0,0-.81.21,30.86,30.86,0,0,0-2.47,5.51.59.59,0,0,0,.37.75.63.63,0,0,0,.19,0,.6.6,0,0,0,.56-.4,30.58,30.58,0,0,1,2.37-5.3A.58.58,0,0,0,130.43,316.88Zm25.15-1.22a.58.58,0,0,0-.62-.55.59.59,0,0,0-.56.62c.12,2,.28,4,.5,5.94a.58.58,0,0,0,.58.53h.07a.58.58,0,0,0,.52-.65C155.86,319.65,155.7,317.67,155.58,315.66Zm15.32,2.1a39.51,39.51,0,0,0-4.35-4.16.59.59,0,0,0-.74.93,38.69,38.69,0,0,1,4.21,4,.59.59,0,0,0,.44.2.58.58,0,0,0,.39-.15A.6.6,0,0,0,170.9,317.76ZM139,309a.59.59,0,0,0-.79-.27,18.68,18.68,0,0,0-4.93,3.57.59.59,0,0,0,.41,1,.67.67,0,0,0,.43-.17,17,17,0,0,1,4.61-3.34A.61.61,0,0,0,139,309Zm22.57,1.27a29.55,29.55,0,0,0-5.56-2.36.61.61,0,0,0-.63.18c0-1.37,0-2.78.08-4.18a.59.59,0,0,0-.57-.61.6.6,0,0,0-.62.57c0,1.55-.07,3.11-.07,4.62,0,.44,0,.89,0,1.33a.58.58,0,0,0,.59.59h0a.58.58,0,0,0,.58-.6c0-.31,0-.63,0-.95a.62.62,0,0,0,.29.18,29.39,29.39,0,0,1,5.33,2.26.48.48,0,0,0,.28.08.59.59,0,0,0,.52-.31A.6.6,0,0,0,161.57,310.23Zm-11.49-3.48a28.5,28.5,0,0,0-6,.21.59.59,0,0,0,.08,1.18h.09a26.74,26.74,0,0,1,5.78-.19.58.58,0,0,0,.63-.55A.59.59,0,0,0,150.08,306.75Zm5.68-15.32a.59.59,0,0,0-.65.52c-.21,2-.39,4-.53,5.94a.6.6,0,0,0,.55.63h0a.58.58,0,0,0,.59-.55c.14-1.94.32-3.92.53-5.88A.6.6,0,0,0,155.76,291.43Zm1.73-11.73a.6.6,0,0,0-.69.48c-.35,1.94-.66,3.92-1,5.87a.6.6,0,0,0,.5.67h.09a.59.59,0,0,0,.59-.51c.28-1.94.59-3.91.94-5.83A.61.61,0,0,0,157.49,279.7ZM160,268.11a.59.59,0,0,0-.72.43c-.48,1.9-.94,3.86-1.36,5.8a.59.59,0,0,0,.45.7l.13,0a.59.59,0,0,0,.58-.47c.42-1.93.87-3.87,1.35-5.76A.59.59,0,0,0,160,268.11Zm3.37-11.37a.58.58,0,0,0-.75.38c-.62,1.85-1.22,3.76-1.78,5.67a.6.6,0,0,0,.4.74.52.52,0,0,0,.17,0,.59.59,0,0,0,.57-.42c.55-1.9,1.14-3.8,1.76-5.64A.59.59,0,0,0,163.4,256.74Zm4.25-11.06a.59.59,0,0,0-.78.31c-.77,1.8-1.52,3.66-2.23,5.52a.59.59,0,0,0,.35.76.49.49,0,0,0,.21,0,.58.58,0,0,0,.55-.39c.7-1.84,1.44-3.68,2.2-5.46A.59.59,0,0,0,167.65,245.68ZM172.87,235a.59.59,0,0,0-.81.23c-.94,1.71-1.85,3.49-2.73,5.3a.6.6,0,0,0,.28.79.57.57,0,0,0,.25.06.59.59,0,0,0,.54-.33c.86-1.79,1.77-3.56,2.7-5.25A.59.59,0,0,0,172.87,235Zm6.3-10a.59.59,0,0,0-.82.14c-1.12,1.59-2.23,3.26-3.29,5a.59.59,0,0,0,.19.81.56.56,0,0,0,.31.09.61.61,0,0,0,.51-.28c1.05-1.69,2.14-3.34,3.25-4.92A.59.59,0,0,0,179.17,225Zm7.54-9.14a.59.59,0,0,0-.84,0c-1.33,1.41-2.65,2.93-3.92,4.5a.58.58,0,0,0,.09.83.56.56,0,0,0,.37.13.58.58,0,0,0,.46-.22c1.25-1.54,2.55-3,3.86-4.43A.6.6,0,0,0,186.71,215.87Zm8.85-7.85a.6.6,0,0,0-.83-.12c-1.56,1.18-3.11,2.46-4.6,3.81a.6.6,0,0,0,0,.84.59.59,0,0,0,.44.2.54.54,0,0,0,.39-.16c1.47-1.33,3-2.58,4.52-3.74A.58.58,0,0,0,195.56,208Zm99.05,2.14a49.72,49.72,0,0,0-4.76-3.67.6.6,0,0,0-.68,1,50.38,50.38,0,0,1,4.65,3.58.6.6,0,0,0,.4.15.57.57,0,0,0,.44-.2A.59.59,0,0,0,294.61,210.16Zm-88.92-8.25a.6.6,0,0,0-.8-.26c-.83.42-1.68.87-2.51,1.32s-1.82,1-2.71,1.57a.59.59,0,0,0-.2.81.6.6,0,0,0,.51.29.53.53,0,0,0,.3-.09c.88-.54,1.77-1.05,2.66-1.53s1.66-.89,2.49-1.31A.6.6,0,0,0,205.69,201.91Zm79.12,1.36c-1.7-1-3.47-2-5.25-2.84a.59.59,0,1,0-.52,1.07c1.75.87,3.49,1.81,5.17,2.8a.65.65,0,0,0,.31.08.58.58,0,0,0,.5-.29A.6.6,0,0,0,284.81,203.27Zm-68.23-6a.59.59,0,0,0-.76-.36c-1.84.67-3.7,1.41-5.54,2.21a.6.6,0,0,0-.31.78.59.59,0,0,0,.54.36.54.54,0,0,0,.25-.06c1.8-.78,3.65-1.52,5.46-2.17A.59.59,0,0,0,216.58,197.26Zm57.54.71c-1.84-.75-3.72-1.45-5.59-2.07a.59.59,0,1,0-.38,1.12c1.85.61,3.71,1.3,5.52,2a.62.62,0,0,0,.23,0,.59.59,0,0,0,.22-1.14Zm-46.84-4.35c-1.92.41-3.86.89-5.79,1.44a.59.59,0,0,0,.17,1.16l.16,0c1.89-.55,3.81-1,5.71-1.43a.59.59,0,1,0-.25-1.15Zm35.51.62c-1.93-.49-3.9-.9-5.84-1.24a.59.59,0,0,0-.2,1.17c1.92.33,3.85.74,5.76,1.21a.32.32,0,0,0,.14,0,.57.57,0,0,0,.57-.45A.58.58,0,0,0,262.79,194.24ZM239.1,192c-2,.12-4,.32-5.94.58a.59.59,0,0,0-.5.67.58.58,0,0,0,.58.51h.08c2-.27,3.91-.46,5.85-.58a.59.59,0,0,0,.56-.62A.59.59,0,0,0,239.1,192Zm11.93.21c-2-.19-4-.3-6-.33a.57.57,0,0,0-.6.58.6.6,0,0,0,.58.6c1.95,0,3.93.14,5.87.32H251a.59.59,0,0,0,.05-1.18Z"/><path class="cls-2" d="M649.34,253.92s-1.34-1.75-3.5-4.8A.59.59,0,0,0,645,249a.6.6,0,0,0-.14.82c2.18,3.07,3.52,4.83,3.53,4.84a.59.59,0,0,0,.94-.72Zm-6.88-9.68c-1.09-1.61-2.19-3.27-3.28-4.93a.59.59,0,1,0-1,.64c1.09,1.68,2.2,3.34,3.29,5a.61.61,0,0,0,.49.26.56.56,0,0,0,.33-.1A.59.59,0,0,0,642.46,244.24ZM636,234.31c-1-1.68-2.09-3.38-3.09-5.05a.58.58,0,0,0-.81-.21.59.59,0,0,0-.21.82c1,1.68,2.06,3.38,3.11,5.07a.57.57,0,0,0,.5.27.54.54,0,0,0,.32-.09A.58.58,0,0,0,636,234.31Zm-6.09-10.16c-1-1.72-2-3.46-2.91-5.17a.6.6,0,0,0-1,.58c.95,1.71,1.92,3.45,2.92,5.18a.57.57,0,0,0,.51.3.6.6,0,0,0,.29-.08A.59.59,0,0,0,629.9,224.15Zm-5.71-10.39c-.92-1.76-1.82-3.53-2.68-5.27a.58.58,0,0,0-.79-.27.59.59,0,0,0-.28.79c.87,1.75,1.78,3.53,2.7,5.3a.58.58,0,0,0,.53.32.63.63,0,0,0,.27-.06A.61.61,0,0,0,624.19,213.76Zm-5.25-10.61c-.83-1.8-1.65-3.62-2.43-5.4a.59.59,0,1,0-1.08.48c.77,1.78,1.6,3.6,2.44,5.42a.58.58,0,0,0,.54.34.64.64,0,0,0,.24-.05A.58.58,0,0,0,618.94,203.15Zm-4.7-10.85c-.75-1.84-1.46-3.7-2.13-5.51a.59.59,0,0,0-.76-.36.6.6,0,0,0-.35.76c.67,1.83,1.39,3.7,2.13,5.56a.61.61,0,0,0,.56.37.54.54,0,0,0,.21-.05A.59.59,0,0,0,614.24,192.3Zm-4.07-11.11c-.62-1.89-1.2-3.8-1.73-5.65a.59.59,0,0,0-1.14.33c.53,1.87,1.12,3.78,1.75,5.7a.59.59,0,0,0,.56.4.63.63,0,0,0,.19,0A.59.59,0,0,0,610.17,181.19Zm-3.23-11.36c-.46-1.94-.87-3.88-1.23-5.77a.59.59,0,1,0-1.16.22c.35,1.9.77,3.87,1.24,5.83a.6.6,0,0,0,.58.45h.14A.59.59,0,0,0,606.94,169.83Zm-2.73-17.45a.59.59,0,0,0-1.18.08c.12,1.93.32,3.92.58,5.93a.59.59,0,0,0,.59.52h.07a.58.58,0,0,0,.51-.66C604.53,156.26,604.34,154.29,604.21,152.38ZM603.82,140a.59.59,0,0,0-.65.53c-.18,1.93-.29,3.94-.31,6a.6.6,0,0,0,.59.6h0a.6.6,0,0,0,.59-.59c0-2,.12-4,.3-5.87A.59.59,0,0,0,603.82,140Zm23.18.64h-.11a49.17,49.17,0,0,1-5.74-.34.59.59,0,1,0-.14,1.17,49.33,49.33,0,0,0,5.88.36H627a.6.6,0,0,0,0-1.19Zm12.23-1.35a.6.6,0,0,0-.75-.38,33.3,33.3,0,0,1-5.67,1.32.59.59,0,0,0-.5.66.61.61,0,0,0,.59.52H633a36,36,0,0,0,5.86-1.36A.6.6,0,0,0,639.23,139.28Zm-23.86,0c-1.87-.43-3.78-1-5.65-1.58a.59.59,0,0,0-.37,1.13c1.91.63,3.85,1.17,5.76,1.6l.13,0a.6.6,0,0,0,.58-.47A.59.59,0,0,0,615.37,139.29ZM649.11,133a.59.59,0,0,0-.84,0,21.7,21.7,0,0,1-4.51,3.56.6.6,0,0,0-.2.82.58.58,0,0,0,.5.29.56.56,0,0,0,.31-.09,22.8,22.8,0,0,0,4.75-3.76A.59.59,0,0,0,649.11,133Zm-44.89,2.67c-1.78-.76-3.57-1.62-5.29-2.55a.6.6,0,0,0-.56,1c1.75.94,3.57,1.81,5.39,2.6a.59.59,0,0,0,.23,0,.59.59,0,0,0,.23-1.14Zm2-7.22a.59.59,0,0,0-.74.38A53.65,53.65,0,0,0,604,134.6a.6.6,0,0,0,.47.7h.11a.58.58,0,0,0,.58-.47,53,53,0,0,1,1.44-5.68A.58.58,0,0,0,606.24,128.41Zm-12.36,1.68c-1.64-1.07-3.25-2.22-4.78-3.41a.59.59,0,1,0-.73.92c1.55,1.23,3.19,2.4,4.86,3.48a.55.55,0,0,0,.32.1.61.61,0,0,0,.5-.27A.6.6,0,0,0,593.88,130.09Zm61-7.36a.58.58,0,0,0-.75.37,28.12,28.12,0,0,1-2.4,5.28.59.59,0,0,0,.21.81.64.64,0,0,0,.3.08.59.59,0,0,0,.51-.29,28.9,28.9,0,0,0,2.5-5.5A.59.59,0,0,0,654.91,122.73Zm-43.66-5a.58.58,0,0,0-.81.2,46.05,46.05,0,0,0-2.81,5.29.59.59,0,0,0,.3.78.53.53,0,0,0,.24.06.6.6,0,0,0,.54-.35,45.35,45.35,0,0,1,2.74-5.16A.6.6,0,0,0,611.25,117.7Zm-26.61,5.15c-1.43-1.35-2.8-2.78-4.07-4.22a.59.59,0,1,0-.89.78c1.29,1.47,2.69,2.93,4.15,4.3a.59.59,0,0,0,.41.16.61.61,0,0,0,.43-.18A.6.6,0,0,0,584.64,122.85Zm72.27-11.26a.6.6,0,0,0-1.19.06c0,.55,0,1.09,0,1.64a29.09,29.09,0,0,1-.29,4.16.6.6,0,0,0,.51.67h.08a.59.59,0,0,0,.59-.51,31.46,31.46,0,0,0,.29-4.32C657,112.73,656.94,112.15,656.91,111.59Zm-80,2.43a51.84,51.84,0,0,1-3.12-5,.59.59,0,0,0-.8-.24.61.61,0,0,0-.24.81,56.49,56.49,0,0,0,3.19,5.07.61.61,0,0,0,.48.25.63.63,0,0,0,.35-.11A.6.6,0,0,0,576.94,114Zm41.76-5.51a.59.59,0,0,0-.84,0c-.91,1-1.82,2-2.74,3-.41.48-.82,1-1.22,1.46a.59.59,0,0,0,.46,1,.57.57,0,0,0,.46-.22c.39-.47.79-.95,1.19-1.41.91-1,1.82-2,2.71-3A.59.59,0,0,0,618.7,108.51Zm37.23-2.89a20.25,20.25,0,0,0-2.49-5.55.58.58,0,0,0-.82-.17.59.59,0,0,0-.16.82,19.16,19.16,0,0,1,2.33,5.22.6.6,0,0,0,.57.44l.16,0A.59.59,0,0,0,655.93,105.62Zm-28.44-5a.59.59,0,0,0-.83-.11c-1.49,1.14-3,2.44-4.57,3.86a.6.6,0,0,0,0,.84.61.61,0,0,0,.43.19.64.64,0,0,0,.41-.16c1.51-1.4,3-2.67,4.48-3.78A.6.6,0,0,0,627.49,100.58Zm-56.2,3.21a46.87,46.87,0,0,1-1.87-5.54.6.6,0,0,0-1.15.31,49.34,49.34,0,0,0,1.93,5.68.57.57,0,0,0,.77.32A.59.59,0,0,0,571.29,103.79Zm66.64-8.69a.6.6,0,0,0-.74-.39,27.13,27.13,0,0,0-5.53,2.44.59.59,0,0,0-.23.81.59.59,0,0,0,.81.22,26.16,26.16,0,0,1,5.3-2.33A.62.62,0,0,0,637.93,95.1Zm11.17.64a12.52,12.52,0,0,0-5.87-1.84.59.59,0,0,0-.62.57.58.58,0,0,0,.55.62,11.32,11.32,0,0,1,5.32,1.65.6.6,0,0,0,.82-.19A.59.59,0,0,0,649.1,95.74Zm-81.27-9a.61.61,0,0,0-.61-.58.59.59,0,0,0-.58.59,47.69,47.69,0,0,0,.44,6,.59.59,0,0,0,.58.51h.09a.59.59,0,0,0,.51-.66A45.34,45.34,0,0,1,567.83,86.7Zm.64-12.35a.6.6,0,0,0-.69.47c-.37,1.91-.66,3.9-.86,5.92a.59.59,0,0,0,.54.64h0a.59.59,0,0,0,.59-.53c.2-2,.48-3.93.84-5.8A.59.59,0,0,0,568.47,74.35Zm3.65-11.24a.59.59,0,0,0-.78.3A49.94,49.94,0,0,0,569.23,69a.6.6,0,0,0,.39.74.55.55,0,0,0,.18,0,.6.6,0,0,0,.57-.41,48.32,48.32,0,0,1,2-5.48A.6.6,0,0,0,572.12,63.11Zm6.31-10a.6.6,0,0,0-.84.08,44.41,44.41,0,0,0-3.46,4.89.57.57,0,0,0,.19.81.6.6,0,0,0,.31.1.58.58,0,0,0,.5-.29A43.49,43.49,0,0,1,578.51,54,.59.59,0,0,0,578.43,53.13Zm8.77-7.91a.59.59,0,0,0-.82-.15,43.84,43.84,0,0,0-4.68,3.77.6.6,0,0,0,0,.84.63.63,0,0,0,.44.19.61.61,0,0,0,.4-.16A41.48,41.48,0,0,1,587.06,46,.59.59,0,0,0,587.2,45.22Zm10.53-5.37a.6.6,0,0,0-.77-.35A49.88,49.88,0,0,0,591.5,42a.59.59,0,0,0,.27,1.11.67.67,0,0,0,.28-.06,47.69,47.69,0,0,1,5.34-2.4A.6.6,0,0,0,597.73,39.85Zm10.81-3.3a53.27,53.27,0,0,0-5.86,1.16.59.59,0,0,0,.14,1.17l.15,0a57.12,57.12,0,0,1,5.74-1.14.59.59,0,1,0-.17-1.17Zm23.77,1.13c-1.94-.46-3.91-.83-5.88-1.11a.6.6,0,0,0-.67.51.59.59,0,0,0,.51.67c1.93.27,3.87.64,5.77,1.08a.3.3,0,0,0,.13,0,.61.61,0,0,0,.58-.46A.6.6,0,0,0,632.31,37.68ZM620.48,36a59.66,59.66,0,0,0-6,0,.59.59,0,1,0,0,1.18c1.93-.08,3.92-.08,5.87,0h0a.59.59,0,0,0,.59-.56A.58.58,0,0,0,620.48,36Z"/><path class="cls-2" d="M815.18,155.6q-2.94.06-5.89,0a.59.59,0,0,0,0,1.18c1.15,0,2.31.05,3.44.05l2.52,0a.58.58,0,0,0,.58-.6A.6.6,0,0,0,815.18,155.6Zm11.75-.92c-1.91.27-3.88.48-5.86.63a.59.59,0,0,0,0,1.18h0c2-.15,4-.36,5.93-.63a.58.58,0,0,0,.5-.67A.59.59,0,0,0,826.93,154.68Zm-23.53.59c-1.93-.15-3.91-.34-5.88-.57a.59.59,0,1,0-.14,1.17c2,.24,4,.44,5.93.58h0a.59.59,0,0,0,0-1.18Zm-11.73-1.39c-1.92-.31-3.87-.66-5.81-1a.6.6,0,0,0-.23,1.17c2,.38,3.92.74,5.86,1.05h.09a.59.59,0,0,0,.09-1.18Zm47.51-1.14a.6.6,0,0,0-.73-.42c-1.86.52-3.78,1-5.72,1.38a.61.61,0,0,0-.47.7.6.6,0,0,0,.59.47H833c2-.4,3.92-.87,5.81-1.39A.61.61,0,0,0,839.18,152.74Zm-59.09-1.17c-1.91-.46-3.84-1-5.72-1.49a.6.6,0,0,0-.73.41.59.59,0,0,0,.41.73c1.89.53,3.84,1,5.77,1.5H780a.59.59,0,0,0,.58-.45A.58.58,0,0,0,780.09,151.57Zm70.18-3a.59.59,0,0,0-.79-.29c-1.75.8-3.58,1.55-5.44,2.22a.59.59,0,0,0,.21,1.15l.2,0c1.88-.69,3.74-1.45,5.53-2.26A.6.6,0,0,0,850.27,148.6Zm-81.56-.22c-3.5-1.13-5.54-1.95-5.56-1.95a.59.59,0,1,0-.44,1.09s2.09.85,5.64,2a.57.57,0,0,0,.18,0,.61.61,0,0,0,.57-.41A.62.62,0,0,0,768.71,148.38ZM860,141.94a.59.59,0,0,0-.83,0,34.84,34.84,0,0,1-4.58,3.59.6.6,0,0,0-.17.82.58.58,0,0,0,.5.27.55.55,0,0,0,.32-.1,36.58,36.58,0,0,0,4.74-3.71A.6.6,0,0,0,860,141.94Zm7-9.51a.6.6,0,0,0-.81.24,35.9,35.9,0,0,1-3.11,4.92.58.58,0,0,0,.12.83.58.58,0,0,0,.82-.12,35.25,35.25,0,0,0,3.22-5.08A.57.57,0,0,0,867,132.43Zm3.73-11.21a.59.59,0,0,0-.7.46,42.07,42.07,0,0,1-1.53,5.64.58.58,0,0,0,.37.75l.19,0a.58.58,0,0,0,.56-.39,46.14,46.14,0,0,0,1.58-5.8A.59.59,0,0,0,870.71,121.22ZM872.15,110a.6.6,0,0,0-.61-.57.58.58,0,0,0-.57.61c0,.53,0,1,0,1.57,0,1.45-.06,2.89-.17,4.28a.59.59,0,0,0,.54.64h0A.6.6,0,0,0,872,116c.12-1.43.17-2.9.17-4.38C872.17,111.07,872.17,110.53,872.15,110Zm7-5.53c-1,0-1.94.06-2.89.06s-2,0-3-.07a.61.61,0,0,0-.62.57.59.59,0,0,0,.57.62c1,0,2,.06,3,.06h0c1,0,2,0,2.93,0a.6.6,0,0,0,0-1.19Zm11.66-1.39c-1.94.38-3.89.69-5.81.92a.59.59,0,0,0,.07,1.18h.07c2-.24,3.93-.55,5.9-.93a.6.6,0,0,0-.23-1.17Zm-23.39.87c-2-.27-3.89-.63-5.77-1.07a.6.6,0,0,0-.71.44.61.61,0,0,0,.45.72c1.91.45,3.88.81,5.87,1.08h.08a.59.59,0,0,0,.08-1.18Zm3.2-5.8a.59.59,0,0,0-.7-.45.6.6,0,0,0-.46.71c.44,1.91.78,3.85,1,5.78a.58.58,0,0,0,.58.52h.08a.58.58,0,0,0,.51-.66C871.43,102.07,871.08,100.08,870.64,98.14Zm28.62,3.49a.59.59,0,0,0-.73-.41l-2,.54a.59.59,0,0,0-.42.72.59.59,0,0,0,.57.45l.15,0,2-.55A.58.58,0,0,0,899.26,101.63ZM856,101.25A52.72,52.72,0,0,1,850.61,99a.59.59,0,1,0-.5,1.07,52.67,52.67,0,0,0,5.54,2.26l.2,0a.6.6,0,0,0,.56-.4A.59.59,0,0,0,856,101.25Zm-10.57-5a47.43,47.43,0,0,1-4.77-3.38.59.59,0,0,0-.83.08.58.58,0,0,0,.09.83,47.23,47.23,0,0,0,4.89,3.48.56.56,0,0,0,.31.09.6.6,0,0,0,.5-.29A.59.59,0,0,0,845.47,96.25Zm23.58-3.88c-.63-1.91-1.34-3.79-2.13-5.59a.6.6,0,0,0-.79-.3.58.58,0,0,0-.3.77c.78,1.77,1.48,3.62,2.09,5.49a.6.6,0,0,0,.57.4.38.38,0,0,0,.18,0A.59.59,0,0,0,869.05,92.37Zm-32.63-3.48a34.19,34.19,0,0,1-3.61-4.56.6.6,0,0,0-.83-.17.6.6,0,0,0-.17.82,35.9,35.9,0,0,0,3.75,4.72.59.59,0,0,0,.42.19.57.57,0,0,0,.41-.16A.6.6,0,0,0,836.42,88.89Zm27.8-7.46a47.72,47.72,0,0,0-3.28-5,.59.59,0,1,0-1,.71A49.91,49.91,0,0,1,863.2,82a.57.57,0,0,0,.51.3.6.6,0,0,0,.29-.08A.59.59,0,0,0,864.22,81.43Zm-34.07-2.24a15.45,15.45,0,0,1-1.09-5.46v-.1a.6.6,0,0,0-1.19,0v.12A17,17,0,0,0,829,79.61a.58.58,0,0,0,.55.39.78.78,0,0,0,.21,0A.6.6,0,0,0,830.15,79.19ZM857,71.86A33.4,33.4,0,0,0,852.38,68a.61.61,0,0,0-.83.16.59.59,0,0,0,.16.82,32.32,32.32,0,0,1,4.47,3.71.55.55,0,0,0,.41.18.6.6,0,0,0,.43-.18A.59.59,0,0,0,857,71.86Zm-21.26-7a.6.6,0,0,0-.73-.41,9.72,9.72,0,0,0-5.24,3.3.59.59,0,0,0,.1.83.61.61,0,0,0,.83-.1,8.57,8.57,0,0,1,4.62-2.89A.59.59,0,0,0,835.75,64.83Zm11.27.38a21.12,21.12,0,0,0-5.92-1.3.59.59,0,0,0-.64.54.61.61,0,0,0,.55.64,19.83,19.83,0,0,1,5.6,1.23.45.45,0,0,0,.2,0,.61.61,0,0,0,.56-.39A.6.6,0,0,0,847,65.21Z"/><path class="cls-2" d="M832.25,432.91q-2.32.06-4.71.06h-1.2a.6.6,0,0,0-.6.59.61.61,0,0,0,.59.6h1.26c1.57,0,3.15,0,4.69-.06a.59.59,0,0,0,.57-.61A.6.6,0,0,0,832.25,432.91Zm-11.82-.07c-1.92-.07-3.9-.17-5.9-.3a.6.6,0,1,0-.07,1.19c2,.12,4,.22,5.93.29h0a.59.59,0,0,0,0-1.18Zm23.58-.68c-1.9.2-3.88.36-5.87.49a.6.6,0,0,0,0,1.19h0c2-.13,4-.29,5.93-.49a.59.59,0,0,0-.13-1.18Zm-35.36-.1c-2-.22-3.93-.5-5.82-.84a.59.59,0,1,0-.21,1.17c1.91.34,3.9.63,5.9.85h.06a.59.59,0,0,0,.07-1.18Zm47.71-1.21a.59.59,0,0,0-.7-.46c-1.87.38-3.83.73-5.8,1a.59.59,0,0,0-.49.68.58.58,0,0,0,.58.5H850c2-.3,4-.64,5.86-1A.59.59,0,0,0,856.36,430.85ZM797.09,430c-1.92-.5-3.81-1.07-5.62-1.71a.59.59,0,0,0-.76.36.6.6,0,0,0,.37.76c1.84.65,3.76,1.23,5.71,1.73l.15,0a.61.61,0,0,0,.57-.45A.58.58,0,0,0,797.09,430Zm70.69-2.22a.59.59,0,0,0-.74-.38c-1.82.61-3.72,1.17-5.65,1.68a.6.6,0,0,0-.42.72.59.59,0,0,0,.57.44h.16c1.94-.52,3.87-1.09,5.71-1.7A.58.58,0,0,0,867.78,427.75ZM786,426.07a55.52,55.52,0,0,1-5.2-2.71.6.6,0,0,0-.81.21.59.59,0,0,0,.21.81,54.3,54.3,0,0,0,5.31,2.76.5.5,0,0,0,.24.06.6.6,0,0,0,.54-.34A.59.59,0,0,0,786,426.07Zm92.66-2.9a.59.59,0,0,0-.8-.26c-1.71.86-3.52,1.67-5.34,2.43a.6.6,0,0,0-.33.77.61.61,0,0,0,.55.37.64.64,0,0,0,.23-.05c1.85-.76,3.68-1.59,5.42-2.46A.6.6,0,0,0,878.69,423.17ZM776,420.12a49.23,49.23,0,0,1-4.48-3.76.61.61,0,0,0-.84,0,.6.6,0,0,0,0,.84,50.12,50.12,0,0,0,4.58,3.85.6.6,0,0,0,.36.12.57.57,0,0,0,.47-.24A.59.59,0,0,0,776,420.12ZM888.76,417a.59.59,0,0,0-.83-.13c-1.56,1.13-3.21,2.22-4.89,3.23a.6.6,0,0,0-.2.82.58.58,0,0,0,.81.2c1.71-1,3.38-2.14,5-3.29A.59.59,0,0,0,888.76,417Zm8.91-7.78a.58.58,0,0,0-.83,0c-1.38,1.39-2.82,2.73-4.29,4a.6.6,0,0,0-.07.84.59.59,0,0,0,.45.2.57.57,0,0,0,.39-.14c1.5-1.29,3-2.65,4.36-4.07A.59.59,0,0,0,897.67,409.19Zm-130.2,2.91a47.88,47.88,0,0,1-3.45-4.72.59.59,0,1,0-1,.64,47.46,47.46,0,0,0,3.54,4.83.55.55,0,0,0,.45.22.62.62,0,0,0,.38-.14A.59.59,0,0,0,767.47,412.1Zm137.74-12a.59.59,0,0,0-.83.14c-1.14,1.59-2.35,3.15-3.6,4.64a.59.59,0,0,0,.08.83.54.54,0,0,0,.38.14.58.58,0,0,0,.45-.21c1.26-1.5,2.49-3.09,3.66-4.72A.58.58,0,0,0,905.21,400.08Zm-144,2.18a46.45,46.45,0,0,1-2.18-5.42.59.59,0,0,0-1.13.37,48.9,48.9,0,0,0,2.24,5.56.59.59,0,1,0,1.07-.51ZM911.36,390a.58.58,0,0,0-.8.24c-.93,1.75-1.91,3.47-2.92,5.11a.58.58,0,0,0,.19.81.61.61,0,0,0,.31.09.6.6,0,0,0,.51-.28c1-1.66,2-3.4,3-5.17A.59.59,0,0,0,911.36,390Zm-153.87,1.22a48.87,48.87,0,0,1-.81-5.79.61.61,0,0,0-.64-.55.59.59,0,0,0-.54.64,51.44,51.44,0,0,0,.83,5.94.6.6,0,0,0,.58.47H757A.59.59,0,0,0,757.49,391.19Zm158.76-12a.59.59,0,0,0-.77.33c-.74,1.85-1.52,3.67-2.32,5.42a.6.6,0,0,0,.3.79.64.64,0,0,0,.24,0,.6.6,0,0,0,.54-.34c.81-1.77,1.6-3.61,2.34-5.48A.6.6,0,0,0,916.25,379.18ZM756.64,373a.61.61,0,0,0-.69.5,51.59,51.59,0,0,0-.57,6,.59.59,0,0,0,.56.62h0a.59.59,0,0,0,.59-.57,51.18,51.18,0,0,1,.56-5.82A.6.6,0,0,0,756.64,373ZM920.07,368a.59.59,0,0,0-.74.4c-.57,1.91-1.18,3.81-1.8,5.61a.59.59,0,0,0,.36.76.64.64,0,0,0,.2,0,.61.61,0,0,0,.56-.4c.62-1.83,1.24-3.73,1.82-5.67A.59.59,0,0,0,920.07,368ZM760,361.7a.59.59,0,0,0-.77.32,49.21,49.21,0,0,0-2,5.66.59.59,0,0,0,.41.73l.16,0a.59.59,0,0,0,.57-.44,50.73,50.73,0,0,1,1.92-5.52A.59.59,0,0,0,760,361.7Zm163-5.2a.57.57,0,0,0-.7.44c-.45,1.95-.92,3.88-1.4,5.74a.59.59,0,0,0,.43.72.34.34,0,0,0,.14,0,.57.57,0,0,0,.57-.44c.49-1.87,1-3.81,1.41-5.78A.59.59,0,0,0,923,356.5ZM766,351.5a.6.6,0,0,0-.83.12,48.18,48.18,0,0,0-3.29,5,.59.59,0,0,0,.23.81.61.61,0,0,0,.8-.22,49.1,49.1,0,0,1,3.2-4.9A.59.59,0,0,0,766,351.5Zm160-6.49a.6.6,0,0,0-.74.4c-.55,1.87-1.07,3.8-1.55,5.74a.6.6,0,0,0,.44.72l.14,0a.58.58,0,0,0,.57-.45c.47-1.93,1-3.85,1.54-5.7A.59.59,0,0,0,925.92,345Zm-151.6-1.86a.6.6,0,0,0-.83-.1,45.86,45.86,0,0,0-4.47,4,.6.6,0,0,0,0,.84.61.61,0,0,0,.42.17.59.59,0,0,0,.42-.18,43.18,43.18,0,0,1,4.34-3.9A.6.6,0,0,0,774.32,343.15Zm10.26-5.85a.6.6,0,0,0-.78-.32,45.55,45.55,0,0,0-5.36,2.7.59.59,0,0,0-.21.8.6.6,0,0,0,.51.3.64.64,0,0,0,.3-.08,44,44,0,0,1,5.22-2.63A.58.58,0,0,0,784.58,337.3Zm145.32-3.44a.59.59,0,0,0-.77.32c-.75,1.8-1.46,3.68-2.12,5.56a.59.59,0,0,0,.36.76.69.69,0,0,0,.2,0,.6.6,0,0,0,.56-.4c.65-1.86,1.36-3.72,2.09-5.5A.58.58,0,0,0,929.9,333.86Zm-134.48-1.31a.59.59,0,0,0-.81-.22,45.91,45.91,0,0,1-5.27,2.54.59.59,0,1,0,.45,1.09,46.51,46.51,0,0,0,5.4-2.6A.6.6,0,0,0,795.42,332.55Zm9.09-7.5a.58.58,0,0,0-.83.05,32.11,32.11,0,0,1-4.23,4,.61.61,0,0,0-.1.84.6.6,0,0,0,.47.23.64.64,0,0,0,.37-.13,34.55,34.55,0,0,0,4.38-4.14A.58.58,0,0,0,804.51,325.05Zm130.64-1.81a.6.6,0,0,0-.81.22c-1,1.69-1.89,3.47-2.77,5.28a.59.59,0,0,0,1.06.52c.87-1.79,1.79-3.54,2.74-5.21A.6.6,0,0,0,935.15,323.24Zm-125-8.53a.58.58,0,0,0-.74.39,27.45,27.45,0,0,1-2.33,5.3.58.58,0,0,0,.22.8.51.51,0,0,0,.29.08.6.6,0,0,0,.52-.3,28.07,28.07,0,0,0,2.43-5.53A.59.59,0,0,0,810.13,314.71Zm131.66-1.27a.59.59,0,0,0-.83.1c-1.21,1.54-2.38,3.17-3.5,4.84a.59.59,0,0,0,.17.82.56.56,0,0,0,.33.1.58.58,0,0,0,.49-.26c1.1-1.65,2.26-3.25,3.44-4.77A.59.59,0,0,0,941.79,313.44Zm-130.08-9.93a.59.59,0,1,0-1.18.12c.1,1,.15,2,.15,3s0,1.88-.14,2.8a.61.61,0,0,0,.54.65h0a.6.6,0,0,0,.59-.54c.09-1,.14-1.94.14-2.91S811.81,304.55,811.71,303.51Zm138.22,1.35a.59.59,0,0,0-.83-.05c-1.46,1.31-2.9,2.72-4.27,4.19a.6.6,0,0,0,0,.84.64.64,0,0,0,.41.16.57.57,0,0,0,.43-.2c1.35-1.44,2.76-2.82,4.19-4.1A.6.6,0,0,0,949.93,304.86Zm9.66-6.84a.6.6,0,0,0-.82-.22,53.56,53.56,0,0,0-5,3.25.59.59,0,0,0,.35,1.07.58.58,0,0,0,.35-.11,54.65,54.65,0,0,1,4.91-3.18A.6.6,0,0,0,959.59,298Zm-149-.42a37.63,37.63,0,0,0-2.11-5.63.59.59,0,0,0-.79-.29.6.6,0,0,0-.29.79,35.7,35.7,0,0,1,2,5.45.6.6,0,0,0,.57.43l.16,0A.59.59,0,0,0,810.57,297.6Zm160-4a.59.59,0,0,0-.73-.41,45.32,45.32,0,0,0-5.66,2,.59.59,0,0,0,.23,1.14.59.59,0,0,0,.23,0,46.4,46.4,0,0,1,5.52-1.93A.59.59,0,0,0,970.53,293.56Zm22.92.43a32.2,32.2,0,0,0-5.78-1.72.6.6,0,0,0-.23,1.17,31.15,31.15,0,0,1,5.57,1.65.54.54,0,0,0,.22,0,.59.59,0,0,0,.22-1.14Zm-304-4.83a.6.6,0,0,0-.84,0,39.7,39.7,0,0,0-3.8,4.69.6.6,0,0,0,.17.82.62.62,0,0,0,.32.09.58.58,0,0,0,.5-.27,39.72,39.72,0,0,1,3.69-4.53A.6.6,0,0,0,689.49,289.16Zm292.2,2.46a38.18,38.18,0,0,0-6,.33.59.59,0,0,0,.08,1.17h.08a38.14,38.14,0,0,1,5.82-.32.6.6,0,0,0,.61-.57A.61.61,0,0,0,981.69,291.62Zm-176.17-4.89a44.57,44.57,0,0,0-3.63-4.78.6.6,0,1,0-.9.78,43.23,43.23,0,0,1,3.54,4.65.6.6,0,0,0,.5.26.62.62,0,0,0,.32-.09A.6.6,0,0,0,805.52,286.73Zm-107.18-5.45a.59.59,0,0,0-.83-.11c-1.6,1.22-3.15,2.51-4.6,3.82a.6.6,0,0,0,0,.84.59.59,0,0,0,.44.19.58.58,0,0,0,.39-.15c1.43-1.29,3-2.55,4.52-3.75A.6.6,0,0,0,698.34,281.28Zm10-6.39a.61.61,0,0,0-.81-.23c-1.75,1-3.47,2-5.13,3.07a.58.58,0,0,0-.16.82.59.59,0,0,0,.49.27.6.6,0,0,0,.33-.1c1.62-1.05,3.32-2.07,5-3A.61.61,0,0,0,708.32,274.89Zm89.36,2.79A51.85,51.85,0,0,0,793,274a.6.6,0,0,0-.83.15.59.59,0,0,0,.15.82,52.62,52.62,0,0,1,4.58,3.64.54.54,0,0,0,.39.16.59.59,0,0,0,.44-.2A.6.6,0,0,0,797.68,277.68ZM719.1,270a.6.6,0,0,0-.77-.34c-1.86.71-3.71,1.49-5.5,2.31a.59.59,0,0,0,.26,1.13.74.74,0,0,0,.24-.05c1.76-.82,3.59-1.58,5.42-2.29A.59.59,0,0,0,719.1,270Zm68.81.78a58.08,58.08,0,0,0-5.38-2.61.6.6,0,0,0-.78.32.58.58,0,0,0,.31.77,53.59,53.59,0,0,1,5.28,2.56.59.59,0,0,0,.8-.24A.59.59,0,0,0,787.91,270.78Zm-57.48-4.21a.59.59,0,0,0-.72-.43c-1.93.46-3.87,1-5.74,1.58a.6.6,0,0,0-.4.74.61.61,0,0,0,.57.42l.18,0c1.85-.57,3.76-1.09,5.68-1.56A.6.6,0,0,0,730.43,266.57Zm46.47-.45c-1.87-.58-3.82-1.08-5.78-1.49a.59.59,0,0,0-.7.46.59.59,0,0,0,.45.7,58.34,58.34,0,0,1,5.68,1.47l.18,0a.59.59,0,0,0,.17-1.16ZM741.43,264c-2,.25-3.95.55-5.88.89a.59.59,0,0,0,.1,1.18h.1c1.91-.34,3.87-.64,5.83-.88a.58.58,0,0,0,.51-.66A.6.6,0,0,0,741.43,264Zm23.79-.35c-2-.22-4-.38-6-.44a.59.59,0,0,0,0,1.18c2,.07,3.94.22,5.86.44h.07a.6.6,0,0,0,.07-1.19Zm-11.91-.47c-2,0-4,.12-5.95.26a.58.58,0,0,0-.55.63.6.6,0,0,0,.59.56h0c1.93-.13,3.91-.22,5.89-.26a.58.58,0,0,0,.58-.6A.57.57,0,0,0,753.31,263.2Z"/><path class="cls-2" d="M961.3,471.45a.6.6,0,0,0-.8.24c-1.08,1.95-1.88,3.12-1.89,3.13a.58.58,0,0,0,.14.82.57.57,0,0,0,.34.11.58.58,0,0,0,.49-.26,33.93,33.93,0,0,0,2-3.23A.6.6,0,0,0,961.3,471.45Zm4.41-11a.6.6,0,0,0-.73.41,47.34,47.34,0,0,1-1.93,5.53.59.59,0,0,0,.32.77.46.46,0,0,0,.23.05.61.61,0,0,0,.55-.36,49.68,49.68,0,0,0,2-5.67A.59.59,0,0,0,965.71,460.47ZM927.31,455a.58.58,0,0,0-.78-.3,17.82,17.82,0,0,1-5.47,1.59.59.59,0,0,0-.54.64.58.58,0,0,0,.59.54h0a18.75,18.75,0,0,0,5.86-1.69A.6.6,0,0,0,927.31,455Zm40.19-5.72a.58.58,0,0,0-.62-.55.59.59,0,0,0-.56.63c0,.63.07,1.28.07,1.93a34.67,34.67,0,0,1-.24,3.88.57.57,0,0,0,.51.65h.07a.59.59,0,0,0,.59-.52,32.73,32.73,0,0,0,.25-4C967.57,450.61,967.55,449.94,967.5,449.28Zm-51,5.12a6.44,6.44,0,0,1-.76-3.33,12.55,12.55,0,0,1,.18-2.05.6.6,0,0,0-.5-.68.58.58,0,0,0-.67.5,13.52,13.52,0,0,0-.19,2.23,7.67,7.67,0,0,0,.92,3.93.6.6,0,0,0,.51.3.58.58,0,0,0,.3-.09A.6.6,0,0,0,916.47,454.4ZM937,448.28a.59.59,0,0,0-.84,0,27.86,27.86,0,0,1-4.51,3.63A.59.59,0,0,0,932,453a.57.57,0,0,0,.32-.1,28.22,28.22,0,0,0,4.7-3.79A.6.6,0,0,0,937,448.28ZM942.62,438a.59.59,0,0,0-.73.41,23.35,23.35,0,0,1-2.22,5.31.59.59,0,0,0,.21.81.57.57,0,0,0,.29.09.6.6,0,0,0,.52-.3,24,24,0,0,0,2.34-5.59A.59.59,0,0,0,942.62,438Zm23.8,5.33A24.47,24.47,0,0,0,964,437.8a.59.59,0,0,0-.81-.2.57.57,0,0,0-.2.81,24.3,24.3,0,0,1,2.35,5.26.59.59,0,0,0,.57.42l.17,0A.59.59,0,0,0,966.42,443.33Zm-46.21-5.74a.59.59,0,0,0-.82.16,33.94,33.94,0,0,0-2.9,5.29.58.58,0,0,0,.31.77.46.46,0,0,0,.23.05.58.58,0,0,0,.54-.35,34.23,34.23,0,0,1,2.81-5.1A.58.58,0,0,0,920.21,437.59Zm40-4.57a32.1,32.1,0,0,0-4.59-3.89.59.59,0,1,0-.69,1,31.76,31.76,0,0,1,4.43,3.76.6.6,0,0,0,.43.18.6.6,0,0,0,.42-1Zm-31.83-3.92a.58.58,0,0,0-.83-.12,34.36,34.36,0,0,0-4.47,4,.6.6,0,0,0,0,.84.64.64,0,0,0,.41.16.61.61,0,0,0,.43-.19,33.31,33.31,0,0,1,4.31-3.9A.58.58,0,0,0,928.41,429.1Zm15.41-2.35a.6.6,0,0,0-.66-.53.61.61,0,0,0-.53.66,36.88,36.88,0,0,1,.23,4c0,.61,0,1.23-.05,1.82a.59.59,0,0,0,.56.62h0a.59.59,0,0,0,.59-.56c0-.61.06-1.24.06-1.88A39.26,39.26,0,0,0,943.82,426.75Zm6.65-.7a21.71,21.71,0,0,0-5.79-1.82.59.59,0,0,0-.68.49.61.61,0,0,0,.49.68,20.37,20.37,0,0,1,5.48,1.73.7.7,0,0,0,.25.05.59.59,0,0,0,.25-1.13Zm-11.87-1.88a22.1,22.1,0,0,0-5.82,1.72.59.59,0,0,0-.3.78.58.58,0,0,0,.54.35.73.73,0,0,0,.25,0,20.46,20.46,0,0,1,5.5-1.63.6.6,0,1,0-.17-1.18Zm4.18-3.33c-.44-1.85-1-3.79-1.66-5.75a.6.6,0,0,0-.75-.37.59.59,0,0,0-.38.75c.66,1.93,1.21,3.83,1.64,5.65a.59.59,0,0,0,.58.45h.13A.6.6,0,0,0,942.78,420.84ZM939,409.51c-.75-1.77-1.6-3.59-2.51-5.41a.58.58,0,0,0-.79-.27.6.6,0,0,0-.27.79c.91,1.81,1.74,3.61,2.48,5.36a.6.6,0,0,0,.54.36.69.69,0,0,0,.24,0A.59.59,0,0,0,939,409.51Zm-5.31-10.68c-1-1.7-2-3.42-3.06-5.12a.59.59,0,0,0-.81-.19.6.6,0,0,0-.19.82c1.06,1.69,2.08,3.4,3,5.07a.58.58,0,0,0,.51.3.66.66,0,0,0,.3-.07A.6.6,0,0,0,933.67,398.83Zm-6.34-10.1c-2.08-3-3.52-4.82-3.53-4.83a.59.59,0,0,0-.84-.09.58.58,0,0,0-.09.83s1.44,1.8,3.49,4.77a.59.59,0,0,0,.49.26.62.62,0,0,0,.33-.11A.6.6,0,0,0,927.33,388.73Z"/><path class="cls-2" d="M975.21,279a.6.6,0,0,0-.84,0c-2.69,2.6-4.32,4-4.34,4.06a.6.6,0,0,0,.4,1,.58.58,0,0,0,.39-.15s1.66-1.48,4.37-4.1A.57.57,0,0,0,975.21,279Zm8.36-8.44a.58.58,0,0,0-.83,0c-1.38,1.44-2.78,2.87-4.14,4.25a.59.59,0,0,0,.42,1,.63.63,0,0,0,.42-.17c1.37-1.38,2.77-2.82,4.15-4.27A.58.58,0,0,0,983.57,270.55Zm8-8.76a.59.59,0,0,0-.83.06c-1.31,1.46-2.64,2.94-4,4.39a.6.6,0,0,0,0,.84.64.64,0,0,0,.41.16.58.58,0,0,0,.43-.2c1.35-1.45,2.69-2.94,4-4.41A.59.59,0,0,0,991.6,261.79Zm7.69-9a.59.59,0,0,0-.83.09c-1.24,1.51-2.52,3-3.81,4.53a.6.6,0,0,0,.07.84.58.58,0,0,0,.39.15.6.6,0,0,0,.44-.21c1.29-1.51,2.58-3,3.83-4.56A.61.61,0,0,0,999.29,252.75Zm7.32-9.34a.58.58,0,0,0-.83.12c-1.18,1.56-2.39,3.14-3.61,4.69a.59.59,0,0,0,.1.83.61.61,0,0,0,.36.13.6.6,0,0,0,.47-.23c1.22-1.56,2.45-3.14,3.63-4.71A.6.6,0,0,0,1006.61,243.41Zm6.9-9.66a.61.61,0,0,0-.83.16c-1.1,1.61-2.24,3.24-3.39,4.85a.59.59,0,0,0,.13.82.58.58,0,0,0,.35.11.57.57,0,0,0,.48-.24c1.16-1.61,2.31-3.25,3.41-4.88A.59.59,0,0,0,1013.51,233.75Zm6.39-10a.59.59,0,0,0-.81.2c-1,1.66-2.06,3.34-3.14,5a.59.59,0,0,0,.18.81.55.55,0,0,0,.32.1.61.61,0,0,0,.5-.27c1.08-1.68,2.14-3.38,3.15-5.05A.57.57,0,0,0,1019.9,223.76Zm5.8-10.33a.58.58,0,0,0-.8.24c-.9,1.72-1.85,3.47-2.83,5.19a.6.6,0,0,0,.23.81.51.51,0,0,0,.29.08.6.6,0,0,0,.52-.3c1-1.74,1.93-3.5,2.84-5.23A.58.58,0,0,0,1025.7,213.43Zm5.07-10.75a.61.61,0,0,0-.78.32c-.76,1.78-1.59,3.59-2.44,5.39a.6.6,0,0,0,.27.79.85.85,0,0,0,.26,0,.57.57,0,0,0,.53-.34c.87-1.81,1.7-3.63,2.47-5.43A.6.6,0,0,0,1030.77,202.68Zm12-3.64a.59.59,0,0,0-.8-.25,17.53,17.53,0,0,1-5.41,1.81.59.59,0,0,0,.09,1.18h.1a18.79,18.79,0,0,0,5.77-1.93A.59.59,0,0,0,1042.73,199Zm-11.88,1.41a18.69,18.69,0,0,1-5.33-2.06.59.59,0,0,0-.81.22.6.6,0,0,0,.23.81,20,20,0,0,0,5.67,2.2h.12a.59.59,0,0,0,.58-.47A.6.6,0,0,0,1030.85,200.45Zm4.06-8.87a.59.59,0,0,0-.75.38c-.59,1.83-1.25,3.69-2,5.56a.59.59,0,0,0,.34.77.76.76,0,0,0,.21,0,.58.58,0,0,0,.55-.37c.72-1.89,1.38-3.78,2-5.63A.59.59,0,0,0,1034.91,191.58Zm16.64-.34a.58.58,0,0,0-.83.09,35.09,35.09,0,0,1-4,4.19.58.58,0,0,0-.06.83.56.56,0,0,0,.44.21.58.58,0,0,0,.39-.15,34.67,34.67,0,0,0,4.18-4.34A.59.59,0,0,0,1051.55,191.24ZM1020.86,195a38.22,38.22,0,0,1-4-4.25.6.6,0,0,0-.84-.08.59.59,0,0,0-.08.83,39.66,39.66,0,0,0,4.12,4.38.58.58,0,0,0,.39.15.56.56,0,0,0,.44-.19A.6.6,0,0,0,1020.86,195Zm36.82-13.83a.6.6,0,0,0-.79.27,54.59,54.59,0,0,1-2.79,5.15.59.59,0,0,0,.5.91.58.58,0,0,0,.5-.28,56,56,0,0,0,2.87-5.26A.59.59,0,0,0,1057.68,181.13Zm-19.81-1a.59.59,0,0,0-.7.46c-.38,1.88-.83,3.81-1.34,5.73a.6.6,0,0,0,.42.73l.15,0a.61.61,0,0,0,.58-.44c.51-2,1-3.9,1.36-5.8A.6.6,0,0,0,1037.87,180.11ZM1013.49,186a21.3,21.3,0,0,1-2.18-5.32.59.59,0,1,0-1.15.29,22.86,22.86,0,0,0,2.3,5.62.6.6,0,0,0,.52.3.67.67,0,0,0,.29-.08A.6.6,0,0,0,1013.49,186Zm48.14-16a.6.6,0,0,0-.72.44c-.13.59-.28,1.17-.45,1.73-.4,1.31-.83,2.6-1.29,3.86a.58.58,0,0,0,.35.75.52.52,0,0,0,.21,0,.58.58,0,0,0,.55-.38c.47-1.28.91-2.6,1.32-3.92.18-.59.33-1.2.47-1.81A.59.59,0,0,0,1061.63,170ZM1011,168.5a.58.58,0,0,0-.71.42,25,25,0,0,0-.81,6,.58.58,0,0,0,.58.6h0a.6.6,0,0,0,.6-.58,24.7,24.7,0,0,1,.76-5.72A.58.58,0,0,0,1011,168.5Zm28.39-.14a.57.57,0,0,0-.62.56c-.11,1.82-.31,3.79-.58,5.85a.58.58,0,0,0,.5.66h.08a.59.59,0,0,0,.59-.51c.29-2.09.48-4.09.59-6A.59.59,0,0,0,1039.36,168.36Zm23.1-9.68a.59.59,0,0,0-.66-.51.6.6,0,0,0-.51.67,38.5,38.5,0,0,1,.34,4.95c0,.29,0,.58,0,.87a.59.59,0,0,0,.58.6h0a.6.6,0,0,0,.6-.57c0-.3,0-.6,0-.9A39.19,39.19,0,0,0,1062.46,158.68ZM1016.3,158a.58.58,0,0,0-.82.12,31.5,31.5,0,0,0-3.14,5.15.6.6,0,0,0,.27.79.62.62,0,0,0,.26.06.58.58,0,0,0,.53-.33,32.2,32.2,0,0,1,3-5A.58.58,0,0,0,1016.3,158Zm22.69-1a.59.59,0,0,0-1.14.33,26.91,26.91,0,0,1,.9,5.71.6.6,0,0,0,.59.56h0a.59.59,0,0,0,.56-.63A28.71,28.71,0,0,0,1039,157Zm-13.63-6.5a.58.58,0,0,0-.79-.28,22.53,22.53,0,0,0-5,3.41.6.6,0,1,0,.79.89,20.83,20.83,0,0,1,4.75-3.23A.59.59,0,0,0,1025.36,150.52Zm35.93,2.28a56.27,56.27,0,0,0-1.86-5.69.6.6,0,0,0-.77-.34.58.58,0,0,0-.34.76,54.71,54.71,0,0,1,1.82,5.57.59.59,0,0,0,.58.44h.15A.6.6,0,0,0,1061.29,152.8Zm-25.11-1.23a8,8,0,0,0-5.6-2.69.58.58,0,0,0-.63.55.6.6,0,0,0,.56.63,6.82,6.82,0,0,1,4.79,2.3.57.57,0,0,0,.44.2.59.59,0,0,0,.44-1Zm20.8-9.93c-.88-1.76-1.87-3.5-2.93-5.2a.59.59,0,0,0-1,.62c1,1.67,2,3.39,2.89,5.11a.59.59,0,0,0,.79.27A.6.6,0,0,0,1057,141.64Zm-6.32-10.13c-1.19-1.58-2.47-3.13-3.8-4.62a.6.6,0,0,0-.84,0,.59.59,0,0,0,0,.83c1.3,1.46,2.56,3,3.73,4.54a.58.58,0,0,0,.47.24.6.6,0,0,0,.48-1Zm-8-8.9c-1.45-1.36-3-2.67-4.52-3.9a.58.58,0,0,0-.83.09.6.6,0,0,0,.09.83c1.53,1.22,3,2.51,4.45,3.84a.58.58,0,0,0,.41.17.55.55,0,0,0,.42-.19A.59.59,0,0,0,1042.69,122.61Zm-9.36-7.41c-1.66-1.1-3.38-2.14-5.13-3.07a.58.58,0,0,0-.8.24.59.59,0,0,0,.24.8c1.71.92,3.4,1.94,5,3a.63.63,0,0,0,.33.09.59.59,0,0,0,.32-1.08Zm-10.51-5.66c-1.83-.79-3.72-1.49-5.6-2.09a.59.59,0,1,0-.36,1.13c1.85.59,3.69,1.28,5.5,2a.59.59,0,0,0,.22.05.59.59,0,0,0,.55-.37A.58.58,0,0,0,1022.82,109.54Zm-11.38-3.64c-1.93-.43-3.91-.76-5.89-1a.59.59,0,0,0-.14,1.18c1.93.24,3.88.57,5.78,1l.13,0a.59.59,0,0,0,.12-1.17Zm-11.84-1.46c-2-.06-4,0-6,.1a.59.59,0,0,0,0,1.18h0c2-.12,3.94-.15,5.87-.09a.6.6,0,0,0,0-1.19Z"/><path class="cls-5" d="M542,452s15.14-28.68,33.57-33.22,45.63,4.06,34.59,8.83c-5.66,2.45-11.7,2.3-16.69,3.65a31.91,31.91,0,0,0-9.83,4.47s22.89-3.79,23.66,2.87c.64,5.52-24,13-24,13s28.21-4.78,23.42,2.4-23.23,11.21-23.23,11.21,37.91-.57,32.16,7.65-31.33.26-33.69,8.63-1.91,37.62-26,33.92Z"/><path class="cls-4" d="M657.94,883.21c-1.29-1-2.36-1.76-3.15-2.32-2.11,2.27-4.18,4.69-6.12,7.22a70.66,70.66,0,0,0-7.55,12H527.36c-3.67-33.55-6.07-62.65-7.62-87.22h0l0-.79a37.1,37.1,0,0,1,.32-7.13h0c.07-.46.15-.9.24-1.33a21.58,21.58,0,0,1,9.3-14.37c18.48-12.48,59.08-2.64,89.29,7.54,8.91,3,16.91,6,23.17,8.52,8.3,3.3,13.55,5.67,13.82,5.79h0l1.65,62.44.09,2.08.1,2.27.15,3.18Z"/><path class="cls-4" d="M781.47,900.07H676.69a147.62,147.62,0,0,0-18.75-16.86c-1.29-1-2.36-1.76-3.15-2.32-2.11,2.27-4.18,4.69-6.12,7.22l-.24-2.39c-2.89-28.56-4.82-53.57-6.09-74.94-.11-1.87-.22-3.7-.32-5.51-.16-2.82-.3-5.57-.44-8.26-.6-11.81-1-22.33-1.22-31.53-.82-31.84.1-48,.1-48l110.07,24.35L777,747.67l.26,9.42h0l1.1,41.9.37,13.51h0l.28,10.8v0l1.42,53.48Z"/><path class="cls-6" d="M678.13,860.75a147,147,0,0,0-20.43,17.11c-.59.59-1.17,1.19-1.75,1.8-.39.4-.78.81-1.16,1.23-2.11,2.27-4.18,4.69-6.12,7.22a70.66,70.66,0,0,0-7.55,12h-1.85a73.57,73.57,0,0,1,9.16-14.35c1.6-2,3.28-3.94,5-5.79.38-.42.77-.83,1.16-1.24q1.51-1.61,3-3.1a148.52,148.52,0,0,1,19.6-16.25Z"/><path class="cls-6" d="M692.14,919.16h-1.86a81.88,81.88,0,0,0-13.59-19.09,147.62,147.62,0,0,0-18.75-16.86c-1.29-1-2.36-1.76-3.15-2.32l-1.38-1-.13-.09.92-1.4.37.25c.3.2.76.53,1.38,1s1.17.84,1.9,1.38a149.26,149.26,0,0,1,21.09,19A80.66,80.66,0,0,1,692.14,919.16Z"/><path class="cls-7" d="M664.6,451.57,656,425.69l-2.52-7.54-14.78-44.3-1.94,44.07-1.16,26.45-.37,8.37c-.25,5.69-4,6.88-8.52,11.82-1.84,2-13.61,14.14-.25,19.62,16.64,6.83,47.75-3.51,59.58-17.06C685.92,467.1,667.39,459.93,664.6,451.57Z"/><ellipse class="cls-7" cx="640.93" cy="390.39" rx="47.57" ry="42.31" transform="translate(123.74 934.18) rotate(-77.78)"/><path class="cls-8" d="M617.06,373.85c-24.25.85-36-12.14-36.28-24.17-.36-15.42,10.1-29.08,22.27-23.35s7-8.32,18.66-9.81c21.88-2.79,26,11.66,43.89,12.36,23.62.93,50.55,37.47,30.75,64.15C696.35,393,636.2,373.18,617.06,373.85Z"/><path class="cls-8" d="M595.47,358.3s25.9,23.16,22.49,36.19-2.56,18.13,12.57,25.08,1.77,18.24,21.93,19.05,44.86-21.31,44.85-57.67a52.51,52.51,0,0,0-12.55-33.54Z"/><path class="cls-7" d="M604.88,393.91c2.93-3.87,8.33-5,12-2.59s4.36,7.54,1.43,11.41-8.34,5-12.06,2.59S601.94,397.78,604.88,393.91Z"/><path class="cls-9" d="M706.07,403.05a.59.59,0,0,1-.58-.46c-1.17-4.89-6.21-7.7-6.26-7.73a.6.6,0,0,1,.57-1.06c.23.13,5.56,3.09,6.86,8.51a.62.62,0,0,1-.45.73Z"/><path class="cls-9" d="M699.51,392.11a.6.6,0,0,1,0-1.2c.07,0,6.63-.45,7.56-5.14a.6.6,0,0,1,.71-.47.59.59,0,0,1,.47.7c-1.12,5.61-8.36,6.09-8.67,6.11Z"/><path class="cls-9" d="M606.73,325.43a5,5,0,0,1-1.3-.18,17.35,17.35,0,0,1-5-2.46c-2.7-1.74-5-3.24-10.11-1.72a.61.61,0,0,1-.75-.4.61.61,0,0,1,.41-.75c5.6-1.68,8.4.12,11.1,1.86a16.51,16.51,0,0,0,4.64,2.31,3,3,0,0,0,2.62-.38c2.65-1.81,3.27-7.55,3.28-7.61a.6.6,0,0,1,1.2.12c0,.26-.69,6.36-3.8,8.48A4,4,0,0,1,606.73,325.43Z"/><path class="cls-9" d="M663.75,327c-8.56,0-15.23-5.77-15.53-6A.6.6,0,0,1,649,320c.08.07,8,6.94,17.31,5.55a.62.62,0,0,1,.69.51.6.6,0,0,1-.51.68A18.49,18.49,0,0,1,663.75,327Z"/><path class="cls-6" d="M611.36,407a5.73,5.73,0,0,1-1.66-.21.28.28,0,0,1-.19-.36.29.29,0,0,1,.36-.19c.22.07,5.49,1.63,9.2-5.25a.29.29,0,0,1,.4-.12.28.28,0,0,1,.11.39C616.93,406.2,613.41,407,611.36,407Z"/><path class="cls-6" d="M519.74,812.84s175.84-9.6,259.28,10.51l1.24-23.79-117-34.64-94.46,2.32-29,6.19L519.3,805.06Z"/><path class="cls-3" d="M763.41,523.1s-15.47-66.55-110.14-66.54c-165,0-118.71,134.56-134,348.5,0,0,106.36-23.06,260.28,7.62,0,0,15-115.86-4.38-213.8C770.09,573,771,545.58,763.41,523.1Z"/><path class="cls-3" d="M634.27,456.55s-52.93.77-92.28,37.92S452,582.78,441.2,612.21c-13.24,36.25,11.13,72.62,42.09,73.39S542,663.94,542,663.94Z"/><path class="cls-3" d="M546.76,444.2S443.82,558.69,439.18,623.7c-3.81,53.39,137.74-69.65,148.58-94.41s-5.61-57.2-5.61-57.2Z"/><path class="cls-3" d="M868.66,652.33C853.18,537.8,722.75,473.12,722.75,473.12L694.93,616.77,749.26,634c27.93,8.87,39.37,42.38,22.43,66.3-21.63,30.54-34.27,71.5-11.93,64C797.94,751.38,876.39,702.63,868.66,652.33Z"/><path class="cls-6" d="M471.42,603.84l-1-.53c.56-1.09,56.21-109.78,110.35-134.52l.49,1.06C527.45,494.42,472,602.75,471.42,603.84Z"/><path class="cls-6" d="M784.47,760.5l-1.15-.07c4.59-83.92-10.27-169.82-10.42-170.68l1.15-.2C774.2,590.41,789.07,676.44,784.47,760.5Z"/><path class="cls-6" d="M523.64,676l-.59-1c31.1-18.35,71.57-66.68,72-67.16l.89.74C595.51,609.08,554.91,657.56,523.64,676Z"/><path class="cls-3" d="M760,239.38a3.71,3.71,0,1,1,3.71,3.71A3.71,3.71,0,0,1,760,239.38Z"/><path class="cls-3" d="M636.59,116a3.71,3.71,0,1,1,3.71,3.71A3.72,3.72,0,0,1,636.59,116Z"/><path class="cls-3" d="M469.92,219.11a3.71,3.71,0,1,1,3.71,3.71A3.71,3.71,0,0,1,469.92,219.11Z"/><path class="cls-3" d="M549,326.88a3.71,3.71,0,1,1,3.71,3.71A3.71,3.71,0,0,1,549,326.88Z"/><path class="cls-3" d="M651.51,262.72a3.71,3.71,0,1,1,3.71,3.71A3.71,3.71,0,0,1,651.51,262.72Z"/><path class="cls-3" d="M676.66,301.07a3.71,3.71,0,1,1,3.71,3.71A3.72,3.72,0,0,1,676.66,301.07Z"/><path class="cls-3" d="M340.24,286.42a3.71,3.71,0,1,1,3.71,3.71A3.71,3.71,0,0,1,340.24,286.42Z"/><path class="cls-3" d="M987.18,303.15a.51.51,0,0,1-.37-.15.53.53,0,0,1,0-.75c3.55-3.7,10.41-4.41,12.59-4.55-1.83-5.95-8.65-10.49-8.72-10.54a.53.53,0,1,1,.58-.88c.32.2,7.72,5.14,9.34,11.8a.52.52,0,0,1-.09.45.54.54,0,0,1-.41.2c-.09,0-8.66.23-12.52,4.25A.53.53,0,0,1,987.18,303.15Z"/><path class="cls-3" d="M993.79,113.61a.57.57,0,0,1-.25-.06c-.33-.18-8.12-4.48-10.29-11a.53.53,0,0,1,.06-.46.56.56,0,0,1,.39-.24c.09,0,8.61-.94,12.13-5.27a.52.52,0,0,1,.74-.08.53.53,0,0,1,.08.74c-3.23,4-10,5.26-12.17,5.58,2.32,5.78,9.49,9.74,9.56,9.78a.53.53,0,0,1,.22.72A.55.55,0,0,1,993.79,113.61Z"/><path class="cls-3" d="M762.92,153.59a.47.47,0,0,1-.28-.09c-.32-.2-7.81-5-9.53-11.65a.52.52,0,0,1,.09-.45.55.55,0,0,1,.4-.21c.09,0,8.66-.36,12.46-4.45a.53.53,0,0,1,.74,0,.53.53,0,0,1,0,.75c-3.49,3.76-10.33,4.58-12.51,4.75,1.92,5.92,8.81,10.35,8.88,10.4a.53.53,0,0,1,.17.73A.54.54,0,0,1,762.92,153.59Z"/><path class="cls-3" d="M300.72,102.48a.52.52,0,0,1-.51-.42c-1.08-5,2.17-11.09,3.29-13-5.95-1.82-13.54,1.28-13.62,1.31a.53.53,0,0,1-.41-1c.35-.14,8.59-3.51,15-1.12a.55.55,0,0,1,.32.33.51.51,0,0,1-.06.45c-.05.08-4.67,7.3-3.5,12.76a.53.53,0,0,1-.4.63Z"/><path class="cls-3" d="M228.64,372.93a.53.53,0,0,1-.53-.47c0-.09-1-8.22-5.5-12.53-1.1,1.9-4.82,7.7-9.72,9.21a.54.54,0,0,1-.66-.35.54.54,0,0,1,.35-.67c5.34-1.64,9.39-9.2,9.43-9.27a.51.51,0,0,1,.36-.28.57.57,0,0,1,.45.12c5.22,4.44,6.3,13.27,6.34,13.65a.51.51,0,0,1-.46.58Z"/><path class="cls-3" d="M331.51,496.43a.56.56,0,0,1-.27-.08.53.53,0,0,1-.18-.73c0-.07,4.23-7.12,3.3-13.27-2,.82-8.52,3.15-13.32,1.35a.53.53,0,1,1,.38-1c5.23,2,13.05-1.54,13.13-1.58a.53.53,0,0,1,.73.37c1.43,6.71-3.12,14.36-3.31,14.68A.53.53,0,0,1,331.51,496.43Z"/><rect class="cls-3" x="258.95" y="894.91" width="781.65" height="5.15"/></svg>